<?xml version="1.0" encoding="UTF-8"?>
<svg id="Layer_1" xmlns="http://www.w3.org/2000/svg" viewBox="0 0 800 272.8">
  <defs>
    <style>
      .cls-1 {
        fill: #f6961f;
      }

      .cls-2 {
        fill: #1a1614;
      }

      .cls-3 {
        fill: #472e1a;
      }

      .cls-4 {
        fill: #f39420;
      }

      .cls-5 {
        fill: #f09321;
      }

      .cls-6 {
        fill: #9f7036;
      }

      .cls-7 {
        fill: #231b16;
      }

      .cls-8 {
        fill: #181615;
      }

      .cls-9 {
        fill: #1e1815;
      }

      .cls-10 {
        fill: #774823;
      }

      .cls-11 {
        fill: #ef9422;
      }

      .cls-12 {
        fill: #291e16;
      }

      .cls-13 {
        fill: #f4951f;
      }
    </style>
  </defs>
  <path class="cls-5" d="M522.89,192.18c-2-1.5-3.48-3.44-4.67-5.61-1.6-2.93-2.37-6.1-2.62-9.41-.08-1.08-.04-1.1,1.04-1.23,3.73-.44,7.24.43,10.63,1.85,4.28,1.79,8.01,4.36,10.87,8.07,1.85,2.4,3.08,5.06,3.4,8.12.24,2.3-.17,4.49-.97,6.63-.19.52-.46.84-1.03,1.01-6.15,1.84-12.4,2.89-18.81,1.99-8.46-1.18-14.81-5.65-19.3-12.85-2.24-3.6-3.76-7.5-4.91-11.57-.05-.19-.08-.39.1-.65.39.82.76,1.6,1.15,2.37,2.69,5.37,6.28,9.96,11.33,13.32,5.71,3.8,12.03,5.02,18.78,4.42,1.79-.16,3.56-.45,5.31-.85,1.1-.25,1.1-.27,1.12-1.44.07-2.98-.44-5.82-2.1-8.37-1.26-1.92-2.96-3.24-5.21-3.81-.71-.18-1.43-.22-2.14-.13-2.29.29-3.53,1.91-3.24,4.2.16,1.24.7,2.34,1.36,3.38-.03.18-.06.36-.09.54Z"/>
  <path class="cls-6" d="M557.71,168.9c.01-.17.02-.33.03-.5.61-.21,1.2-.54,2.03-.31-.72.44-1.31.83-2.06.81Z"/>
  <path class="cls-6" d="M162.68,198.76c-.33.1-.28.42-.36.66-.37-.45-.43-1-.57-1.62.63.1.85.46.93.96Z"/>
  <path class="cls-6" d="M294.38,188.26c.14.14.28.28.43.42-.27.35-.54.69-1.08.71-.05-.59.32-.85.65-1.14Z"/>
  <path class="cls-6" d="M522.89,192.18c.03-.18.06-.36.09-.54.11.09.24.17.32.28.14.18.36.45.12.61-.2.13-.43-.09-.52-.34Z"/>
  <path class="cls-1" d="M659.35,227.42c.2.02.24.15.21.31,0,.04-.09.1-.1.1-.12-.09-.23-.19-.18-.36,0,0,.06-.05.06-.05Z"/>
  <path class="cls-6" d="M555.6,168.7c-.12.14-.26.17-.43.08.12-.12.27-.15.43-.08Z"/>
  <path class="cls-4" d="M472.44,184.3c.11-.07.19-.04.21.09,0,.04-.04.08-.06.12-.05-.07-.11-.13-.16-.2,0,0,.01-.01.01-.01Z"/>
  <path class="cls-6" d="M162.9,199.13c-.17-.06-.26-.17-.22-.35.08.12.15.24.22.35Z"/>
  <path class="cls-4" d="M195.94,206.2c-.18.09.09.13-.11.09-.03,0-.07-.02-.07-.03.04-.11.1-.12.2-.04,0,0-.02-.03-.02-.03Z"/>
  <path class="cls-1" d="M746.51,250.25c-.06-.09,0-.23.04-.2.23.13-.04.12-.07.18,0,0,.02.02.02.02Z"/>
  <path class="cls-10" d="M312.01,172.61c.32-.5.55-1.09,1.24-1.22h-.02c-.15.59-.4,1.14-.93,1.52-.1-.1-.19-.19-.29-.29Z"/>
  <path class="cls-8" d="M312.01,172.61c.1.1.19.2.29.29-.11.22-.3.53-.49.39-.33-.25.02-.48.2-.68Z"/>
  <path class="cls-10" d="M313.24,171.39c.02-.1.04-.2.07-.3.21.16-.06.19-.08.28,0,0,.02.01.02.01Z"/>
  <path class="cls-8" d="M14.59,246.53c1.06-.44,2.2-.43,3.3-.55,3.62-.38,7.26-.55,10.9-.68,4.61-.16,9.23-.32,13.81-.94,2.49-.34,4.95-.83,7.26-1.88,2.32-1.06,3.8-2.71,4.5-5.27,2.27-8.27,4.02-16.64,5.06-25.15,1.22-9.9,1.55-19.84.75-29.8-2.62-32.97-15.29-61.58-37.34-86.12-2.23-2.48-4.58-4.85-7.12-7.02-.71-.61-1.06-1.31-1.22-2.21-.75-4.18-.2-8.27.83-12.33.74-2.94,1.76-5.78,2.96-8.56.18-.42.44-.81.48-1.34-.82-.25-1.64-.49-2.45-.77-5.73-1.97-9.79-5.84-12.54-11.16C1.56,48.46.38,43.87.02,39.06c-.04-.56-.08-1.09.3-1.61,3.75-5.12,8.11-9.53,13.9-12.34,6.64-3.22,13.53-3.39,20.54-1.42,6.66,1.87,12.53,5.29,18.03,9.39,5.37,4,10.23,8.56,14.61,13.62,1.29,1.48,1.26.92.02,2.58-.46.62-.9,1.26-1.44,1.8-.9.91-.87,1.9-.43,2.97.72,1.74,2.08,2.89,3.62,3.86.44.27.77.11,1.09-.21.59-.59,1.01-1.29,1.35-2.04.5-1.12.99-2.25,1.42-3.4.2-.52.41-.89,1.04-.94,9.45-.7,18.85-.85,28.12,1.65,6.78,1.83,12.62,5.3,17.81,9.97,1.83,1.65,3.66,3.29,5.54,4.89,3.38,2.89,7.16,4.98,11.65,5.49,3.45.39,6.86.06,10.24-.67,6.9-1.49,13.4-4.12,19.79-7.04,3.21-1.47,6.36-3.07,9.54-4.62,1.01-.49,1.02-.51,1.59.49,1.16,2.04,2.31,4.1,3.49,6.2,5.54-3.71,11.74-3.69,18.16-3.49-.49-.91-1.07-1.61-1.38-2.45-.78-2.11-.98-4.3-.83-6.51.38-5.45,2.08-10.44,5.55-14.72,3.64-4.49,8.38-6.77,14.19-6.8,5.75-.03,11.15,1.5,16.36,3.76,8.02,3.48,15.16,8.35,21.73,14.08.79.69.79.72.02,1.52-2.76,2.9-5.51,5.81-7.92,9.01-.77,1.02-1.5,2.08-2.11,3.21-.31.59-.62,1.18-.75,1.84-.3,1.52.26,2.23,1.81,2.32,1.62.1,3.16-.33,4.67-.8,5.26-1.62,10.2-3.98,15.11-6.42,2.61-1.3,5.19-2.68,7.76-4.06.62-.33,1.18-.44,1.89-.29,3.27.68,6.46,1.6,9.6,2.73,1.07.39,1.18.14,1.36-.71.04-.2.14-.39.2-.58,2.38-7.25,8.57-9.64,14.54-8.78.25.04.5.05.83.08.35-1.68.57-3.35,1.06-4.96.86-2.83,2.12-5.45,4.16-7.63,3.31-3.53,7.47-5.15,12.24-5.21,1.3-.02,2.3-.36,3.32-1.17,9.93-7.83,20.73-14.14,32.62-18.51,13.8-5.07,28.04-7.27,42.74-6.27,21.94,1.48,41.79,8.74,59.54,21.72,5.19,3.8,9.92,8.13,13.82,13.3,1.89,2.51,3.58,5.14,4.39,8.22.24.92.94,1,1.62,1.1,2.38.38,4.79.62,7.2.66,2.1.04,4.21.17,6.29-.27.8-.17,1.38.21,1.96.64,3.03,2.29,5.87,4.82,8.77,7.26,4.44,3.73,8.85,7.49,13.6,10.83,1.51,1.06,3.05,2.09,4.76,2.81,2.35.98,3.58.06,3.29-2.49-.21-1.91-.88-3.68-1.62-5.43-1.86-4.35-4.22-8.44-6.82-12.37-.79-1.19-.82-2.23-.24-3.43,1.2-2.51,2.76-4.8,4.37-7.05,3.4-4.76,7.08-9.31,10.84-13.79.61-.72.97-1.44,1.1-2.43,1.07-8.51,3.06-16.83,5.51-25.04.36-1.2.38-1.21,1.66-1.01,3.65.55,7.31,1.06,10.94,1.69,1.17.2,2.25-.04,3.35-.19,3.2-.42,6.39-.93,9.59-1.4,1.38-.2,1.4-.19,1.74,1.18,1.77,7.06,3.55,14.11,5.26,21.17.28,1.14.71,1.8,1.88,2.28,7.06,2.95,12.76,7.73,17.61,13.58.52.63.43,1.16.19,1.8-1.31,3.51-2.33,7.1-2.88,10.82-.37,2.55-.49,5.12-.05,7.67.99,5.79,4.49,9.28,10.11,10.68,3.79.94,7.62.84,11.46.22.74-.12,1.32-.48,1.91-.91,4.98-3.65,10.22-6.84,16.07-8.92,3.35-1.19,6.78-1.96,10.35-2.09,7.08-.25,13.17,2.12,18.38,6.83,3.55,3.21,6.24,7.06,8.24,11.39.38.83.87,1.35,1.74,1.53.15.03.3.07.45.11.94.24,1.96.65,2.86.42.99-.25,1.09-1.51,1.55-2.33,6.29-11.13,15.33-18.83,27.75-22.32,3.92-1.1,7.92-1.63,12-1.68.87-.01,1.52.19,2.15.88,1.21,1.33,2.72,2.33,4.16,3.41.47.35.9.45,1.41.16.22-.12.46-.22.71-.3,1.65-.55,2.81-1.46,3.67-3.13,1.81-3.51,4.95-5.19,8.89-5.41,2.12-.12,4.19.17,6.23.77.28.08.57.16,1.08.31-.78-2.13-1.31-4.12-1.73-6.15-.72-3.5-.76-3.5,1.16-6.38,4.81-7.19,10.48-13.55,17.76-18.34,5.29-3.49,11.04-5.82,17.35-6.69,2.65-.37,5.32-.43,7.98-.09.35.04.71.12,1.04.26,5.97,2.42,11.11,5.93,14.74,11.39,2.44,3.67,3.77,7.72,4.06,12.1.04.66.09,1.32-.17,1.97-1.26,3.2-2.7,6.31-4.66,9.16-1.11,1.61-2.39,3.06-4.3,4.23,1.39.64,2.61,1.22,3.84,1.77,1.87.84,1.87.83,1.49,2.8-1.08,5.6-3.04,10.94-4.96,16.29-2.12,5.88-4.46,11.67-6.84,17.45-.33.81-.81,1.31-1.61,1.69-20.66,9.86-35.66,25.37-45.53,45.93-5.22,10.88-8.62,22.34-10.79,34.19-2.5,13.64-3.19,27.4-2.71,41.23.23,6.67.88,13.3,1.82,19.91.5,3.47,2.42,5.66,5.6,6.88,2.92,1.13,5.99,1.36,9.07,1.36,5.36.01,10.63-.77,15.87-1.81,5.68-1.13,11.28-2.6,16.81-4.31.33-.1.67-.16,1.18-.27-.32,1.14-.81,2.02-1.25,2.91-4.82,9.64-11.74,17.52-20.36,23.91-7.57,5.62-15.89,9.73-25.09,11.93-4.12.99-8.29,1.41-12.52,1.05-4.69-.4-8.75-2.42-12.49-5.14-2.74-1.99-4.86-4.55-6.65-7.39-.96-1.52-1.91-3.04-2.82-4.59-3.29-5.63-8.33-8.58-14.63-9.66-5.03-.86-10.1-1-15.18-.72-1.17.07-2.49.4-3.49,0-.93-.38-1.53-1.58-2.27-2.43-5.86-6.74-12.39-12.7-20.1-17.29-6.55-3.9-13.55-6.54-21.15-7.46-5.98-.72-11.88-.33-17.64,1.51-1.17.37-1.18.39-2.01-.62-4.38-5.3-9.37-9.91-15.29-13.46-7.04-4.22-14.64-6.58-22.87-6.79-1.95-.05-3.89.07-5.83.34-.81.11-1.1.39-1.1,1.24.01,3.31-.68,6.51-1.65,9.66-.19.61-.45,1.06-1.1,1.35-6.87,3.07-13.96,5.37-21.45,6.27-9.83,1.18-19.19-.45-28.12-4.73-5.34-2.56-10.22-5.85-14.98-9.35-3.27-2.4-6.62-4.68-10.27-6.46-11.15-5.41-22.35-5.17-33.56-.15-3.51,1.57-6.85,3.48-10.22,5.33-9.67,5.32-20,8.36-31.02,9.01-16.8,1-33.28-.7-49.34-5.93-6.09-1.99-11.95-4.57-17.91-6.91-2.62-1.03-5.28-1.96-8.09-2.36-3.78-.55-7.09.46-10.07,2.78-3.12,2.43-6.29,4.77-9.55,7.01-6.77,4.65-13.77,8.9-21.42,11.99-4.15,1.68-8.42,2.94-12.88,3.41-6.41.68-12.44-.5-18.04-3.78-3.29-1.93-6.24-4.31-9.16-6.74-2.13-1.78-4.24-3.56-6.53-5.13-2.47-1.69-5.09-3.11-8.07-3.64-5.66-1-10.9.23-15.74,3.24-2.99,1.87-5.49,4.31-7.75,6.98-3.01,3.57-5.91,7.23-8.93,10.79-4.46,5.25-9.56,9.72-15.84,12.71-4.68,2.22-9.62,3.47-14.73,4.14-.8.1-1.42-.05-2.05-.68-5.13-5.06-11.43-7.63-18.49-8.56-6.06-.81-12.08-.36-18.09.5-5.74.81-11.4,2.01-16.91,3.84-9.81,3.25-17.97,8.84-24.39,16.96-1.94,2.45-3.87,4.92-5.98,7.24-3.38,3.72-7.41,6.29-12.45,7.07-1.42.22-2.86.42-4.28.4-7.38-.07-14.61-1.06-21.56-3.66-4.49-1.68-8.63-4.01-12.65-6.59-4.4-2.83-8.64-5.9-12.85-9.01-.24-.18-.54-.3-.63-.69ZM162.68,198.77h0c-.08-.52-.3-.87-.93-.97.15.62.2,1.17.57,1.62.6,1.97,1.54,3.77,2.73,5.44,2.72,3.79,6.43,4.64,10.51,2.39,1.67-.92,3.14-2.12,4.5-3.46,3.88-3.8,6.88-8.27,9.75-12.84.39-.62.35-1.26.32-1.92-.36-6.72-.54-13.43-.05-20.15.27-3.79.68-7.56,1.58-11.26.61-2.5,1.39-4.94,2.91-7.07,1.24-1.73,2.82-2.78,5.05-2.7,3.18.11,5.58,1.49,7.19,4.25.65,1.12,1.09,2.31,1.4,3.56.87,3.54.77,7.13.47,10.71-.37,4.56-1.33,9.02-2.4,13.46-.08.33-.33.66-.01,1.02,1.2-.43,2.39-.89,3.61-1.28,9-2.89,17.99-3.46,26.93.24.6.25.94.12,1.3-.35,1.05-1.4,1.97-2.88,2.73-4.45,2.31-4.75,3.23-9.81,3.41-15.04.04-1.12,0-2.25,0-3.37-.76,1.22-1.17,2.48-1.77,3.66-.87,1.71-1.87,3.31-3.42,4.49-1.7,1.3-3.58,1.73-5.65,1.04-1.44-.48-2.65-1.34-3.75-2.36-2.25-2.09-3.87-4.64-5.26-7.35-3.33-6.5-5.22-13.46-6.62-20.58-1.42-7.26-2.19-14.6-2.56-21.98-.37-7.44-.44-14.88.02-22.31.11-1.84-.34-3.16-1.6-4.5-2.53-2.7-4.79-5.64-6.06-9.18-.26-.71-.77-.7-1.34-.74-3.54-.29-7.08-.2-10.59.36-3.27.52-6.38,1.45-9.12,3.43-4.58,3.3-5.7,10.84-.88,15.22,1.61,1.46,3.47,2.34,5.59,2.73,4.06.75,8.59-2.42,9.25-6.49.2-1.24.07-2.18-.44-2.99-.9,2.68-2.77,4.28-5.48,4.87-1.84.4-3.48-.07-4.75-1.5-2.09-2.35-2.02-5.97.1-8.3,1.11-1.21,2.52-1.92,4.06-2.39,2.44-.74,4.95-.77,7.47-.69.64.02,1.04.33,1.39.8,1.69,2.23,3.03,4.64,3.67,7.38.71,3.04.44,5.97-1.43,8.53-3.11,4.24-7.37,6.61-12.6,7.1-4.27.4-7.93-1.21-11.26-3.75-.51-.39-1.02-.78-1.52-1.16-4.04,4.55-9.72,14.92-9.56,18.39,1.99-1.16,3.78-2.44,5.79-3.3,2.02-.86,4.08-1.62,6.37-2.11-.39.74-.99,1.07-1.48,1.5-2.45,2.11-4.77,4.36-6.73,6.95-.58.77-.7,1.42-.16,2.35,1.86,3.21,3.11,6.69,4.09,10.26,2.02,7.31,2.91,14.77,3.13,22.34.28,9.68-.34,19.28-2.5,28.74-.94,4.11-2.15,8.13-4.25,11.83-.77,1.35-1.66,2.59-2.86,3.6-2.02,1.69-4.16,1.84-6.37.4-.81-.53-1.54-1.17-2.3-1.76-.07-.12-.15-.24-.22-.35ZM522.89,192.18c.09.25.32.48.52.34.25-.16.03-.43-.12-.61-.08-.11-.21-.18-.32-.28-.66-1.04-1.2-2.14-1.36-3.38-.3-2.29.95-3.91,3.24-4.2.71-.09,1.43-.05,2.14.13,2.25.57,3.95,1.89,5.21,3.81,1.67,2.54,2.17,5.39,2.1,8.37-.03,1.17-.03,1.19-1.12,1.44-1.75.4-3.52.69-5.31.85-6.74.6-13.07-.62-18.78-4.42-5.04-3.36-8.64-7.95-11.33-13.32-.39-.77-.75-1.55-1.15-2.37-.19.26-.16.46-.1.65,1.15,4.06,2.67,7.97,4.91,11.57,4.49,7.2,10.84,11.67,19.3,12.85,6.41.9,12.66-.15,18.81-1.99.57-.17.83-.5,1.03-1.01.81-2.14,1.21-4.33.97-6.63-.32-3.05-1.55-5.72-3.4-8.12-2.86-3.71-6.59-6.28-10.87-8.07-3.39-1.42-6.9-2.3-10.63-1.85-1.08.13-1.12.15-1.04,1.23.25,3.31,1.02,6.48,2.62,9.41,1.19,2.17,2.67,4.11,4.67,5.61ZM557.71,168.9c.75.02,1.34-.37,2.06-.81-.83-.23-1.42.1-2.03.31-.71.1-1.43.2-2.14.29-.16-.07-.3-.04-.43.08-2.83.27-5.65.09-8.41-.52-4.66-1.03-8.83-3.01-12.01-6.69-3.54-4.09-3.62-9.29-.19-13.49,1.93-2.36,4.53-3.64,7.42-4.4,4.81-1.27,9.65-1.1,14.49-.16,2.22.43,4.39,1.01,6.42,2.07,1.2.63,1.65,1.63,1.57,2.91-.11,1.63-1.1,2.75-2.66,3.19-1.06.3-2.11.15-3.35.03,1.08,1.36,2.38,2.19,3.55,3.16.73.61,1.43.6,2.27.27,6.24-2.44,8.95-9,8.8-14.28-.02-.71-.31-.98-1.03-.99-1.95-.03-3.9-.11-5.84-.22-4-.24-7.96-.79-11.82-1.89-2.78-.79-5.44-1.85-7.74-3.66-4.93-3.89-4.72-11.38.44-14.94,2.48-1.71,5.33-2.34,8.27-2.59,5.81-.49,11.47.34,16.96,2.24,4.66,1.62,8.96,3.84,12.18,7.74.05.06.18.06.33.1,2.82-6.68,4.04-13.59,3.04-20.79-.43-.13-.73-.05-1.03.01-3.22.73-6.49,1.04-9.78.99-9.94-.16-19.08-3.03-27.44-8.39-1.11-.71-1.11-.72-1.9.32-.09.12-.17.25-.27.38-7.43,10.03-14.16,20.52-19.96,31.58-3.87,7.37-7.25,14.95-9.57,22.96-1.27,4.4-2.19,8.86-2.35,13.45-.04,1.16,0,1.18,1.13,1.24,5.78.31,11.2,1.86,16.32,4.53,6.49,3.39,11.73,8.22,16.1,14.05.81,1.08.81,1.06,2.11.7,4.54-1.26,9.15-1.76,13.86-1.3,1.51.15,3.03.27,4.61.41-1.56-7.72,1.41-14.28,4.9-21.06-12.04,7.86-24.66,9.61-38.07,5.71,7.19.18,14.3-.32,21.21-2.55ZM231.63,87.3c.5-.02.86.31,1.25.53,6.24,3.53,11.3,8.31,15.13,14.37,5.24,8.3,7.43,17.49,7.9,27.16.36,7.3-.38,14.55-1.41,21.77-.81,5.75-1.95,11.42-3.75,16.94-1.82,5.6-4.13,10.95-8.26,15.3-.45.47-.26.78.06,1.17.84,1.03,1.67,2.08,2.48,3.14.18.24.57.5.19.97-.49-.27-.99-.54-1.47-.81-2.46-1.4-5.03-2.56-7.72-3.44-7.61-2.47-15.08-2.24-22.23,1.56-8.2,4.35-13.76,11.19-17.79,19.4-.13.27-.28.56-.07.86-.1-.08-.16-.07-.2.04,0,0,.05.02.07.03.2.04-.07,0,.11-.09.77-.75,1.56-1.48,2.31-2.25,3.71-3.79,7.67-7.27,12.26-9.97,8.5-5,17.45-6.28,26.9-3.18,2.93.96,5.69,2.32,8.35,3.89,1.75,1.04,1.42,1.24,2.4-.61.02-.05.05-.09.07-.14,7.46-12.67,18.45-19.6,33.19-20.41,2.87-.16,5.74-.03,8.6.32,1.3.16,1.32.11,1.62-1.18,1.86-8,2.52-16.1,2.12-24.29-.04-.8-.16-1.59-.28-2.7-1.13,1.52-2.05,2.79-3,4.04-2.75,3.58-5.6,7.08-9.12,9.97-1.07.88-2.18,1.75-3.49,2.22-3.71,1.34-6.72.57-8.54-2.83-.58-1.09-1.03-2.23-1.39-3.41-.88-2.91-1.26-5.92-1.49-8.93-.37-4.86-.34-9.73-.13-14.61.3-6.97.92-13.92,1.72-20.85.88-7.64,1.94-15.26,3.19-22.85.08-.46.12-.9-.07-1.36-1.42-3.39-3.19-6.55-5.91-9.09-.18-.17-.34-.55-.73-.34,2.42,6.36,1.48,18.43.43,24.32-.05-.48-.1-.78-.12-1.08-.32-4.35-.48-8.71-1.18-13.02-.39-2.43-.77-4.87-1.91-7.1-.93-1.82-1.7-2.09-3.6-1.42-3.62,1.3-7.29,2.43-11.08,3.15-3.29.62-6.59,1.04-9.93.49-2.17-.36-4.15-1.1-5.81-2.59-1.85-1.66-2.48-3.68-1.99-6.11.53-2.65,1.61-5.07,2.87-7.43,2.11-3.95,4.66-7.61,7.38-11.15.89-1.16.9-1.18-.24-1.97-2.27-1.59-4.64-3.03-7.12-4.26-2.9-1.44-5.9-2.65-9.15-3.02-2.88-.33-5.54.16-7.63,2.37-2.58,2.73-3.28,7.21-1.71,10.64.75,1.65,1.99,2.77,3.75,3.14,2.87.61,5.55-.13,8.52-1.38-.95-.19-1.54-.3-2.12-.44-1.86-.43-3.67-.97-5.19-2.2-1.31-1.06-1.86-2.41-1.54-4.09.45-2.35,2.43-4.11,4.81-4.26,1.41-.09,2.75.17,4.06.68,2.37.92,4.44,2.33,6.42,3.89.94.75.94.77.37,1.92-.98,1.98-2.2,3.82-3.53,5.59-3.37,4.5-7.31,8.45-11.59,12.08-1,.84-1.01.86-.45,2.02,1.14,2.38,2.61,4.52,4.5,6.38.71.7,1.51,1.19,2.5,1.42.89.21,1.76.55,2.64.83.49.16.65.45.42.93-.18.37-.35.74-.52,1.12-.92,2.06-1.87,4.11-2.38,6.32-.48,2.06-.15,3.98,1.03,5.73.77,1.13.9,2.27.48,3.58-.3.92-.23,1.89.21,2.84.57-.34.82-.85,1.15-1.3.78-1.04,2.7-1.01,3.49.05.33.44.56.96,1.21,1.28.26-1.06.41-2.04.1-3.07-.35-1.17-.24-2.27.48-3.32,1.25-1.84,1.54-3.86,1.01-6.02-.39-1.55-.99-3.02-1.58-4.49-.18-.45-.62-.86-.34-1.42l-.02.03ZM294.38,188.26c-.34.28-.7.55-.65,1.14.54-.02.81-.36,1.08-.71,3.28-2.3,6.37-4.84,9.25-7.63,2.21-2.14,4.33-4.38,6.37-6.68.33-.38.59-.92,1.33-.97-.05.72-.47,1.13-.77,1.58-1.9,2.87-3.94,5.63-6.16,8.26-4.91,5.81-10.47,10.86-17.27,14.39-6.34,3.29-13,4.99-20.19,3.92-2.97-.44-5.8-1.33-8.18-3.27-1.01-.82-1.02-.91-.24-1.99,1.53-2.14,3.3-4.06,5.38-5.68,5.01-3.91,10.64-5.62,16.99-4.76,1.02.14,1.1.22,1.13,1.26.06,1.9-.78,3.36-2.27,4.47-1.13.84-2.44,1.3-3.78,1.65-.33.08-.74.01-.89.51,1.42.6,2.88.6,4.34.27,2.52-.58,4.42-2.09,5.95-4.11,1.85-2.45,3-5.24,3.84-8.17.35-1.24.33-1.26-.94-1.42-4.36-.54-8.71-.45-13.03.33-10.34,1.87-18.32,7.14-23.44,16.46-.64,1.17-.65,1.19.25,2.09,4.7,4.7,10.4,7.21,17.01,7.62,4.63.29,9.08-.61,13.4-2.24,6.81-2.57,12.71-6.63,18.22-11.29,2.51-2.12,4.92-4.36,7.19-6.73,2.19-2.29,4.88-3.3,7.98-3.44,2.89-.13,5.73.22,8.56.76,5.85,1.1,11.55,2.79,17.23,4.58,1.68.53,3.36,1.08,5.31,1.71-9.78-10.06-16.35-21.63-20.08-34.94-.59.72-.79,1.42-1.11,2.06-1.44,2.89-2.87,5.79-4.8,8.4-.49.66-1.02,1.29-1.69,1.78-.94.69-1.66.61-2.42-.27-.61-.71-.95-1.57-1.25-2.45-.69-2.06-1.01-4.19-1.22-6.33-.68-6.92-.48-13.84.07-20.75.57-7.11,1.57-14.16,2.97-21.16,2.39-11.95,5.78-23.59,10.91-34.68.17-.36.43-.7.35-1.23-3.22.16-6.44.62-9.67.5-.08-.75.26-1.17.45-1.64,1.4-3.37,2.64-6.79,3.29-10.39.41-2.27.92-4.55-.06-6.81-.29-.68.25-.74.69-.88,1.81-.55,3.37-1.53,4.59-2.97,4.65-5.48,2.28-13.01-4.29-14.64-3.8-.94-7.67,1.12-8.87,4.77-1.05,3.21.43,6.57,3.43,7.79,1.45.59,2.89.63,4.32-.08,1.65-.82,2.44-2.33,2.07-4.23-.21.34-.36.6-.52.84-.99,1.43-2.39,1.94-3.86,1.41-1.43-.52-2.34-1.89-2.28-3.48.1-2.77,2.69-4.86,5.41-4.28,2.45.52,4.13,2,4.85,4.44,1.1,3.74-1.26,8.16-5.12,9.76-.72.3-1.15.21-1.71-.38-2.35-2.48-5.31-3-8.43-1.59-1.51.68-2.83,1.64-4.04,2.77-1.13,1.05-2.12,2.23-3.04,3.46-.28.38-.56.85-1.04.83-1.28-.06-2.64.39-3.78-.7-.53-.5-1.25-.82-2.07-.97-.41,1.38-.69,2.7-.17,3.99.2.51.3.91.19,1.44-.32,1.61.29,2.91,1.47,3.99.73.67,1.57,1.18,2.51,1.45.6.18.84.45.78,1.09-.1,1.07-.16,2.15-.19,3.22-.02.63-.15.93-.9.8-5.7-.96-11.21-2.46-16.29-5.3-.26-.14-.52-.55-.96-.15.54.81,1.06,1.63,1.62,2.43,4.61,6.54,8.23,13.59,10.65,21.23,3.25,10.25,4.64,20.81,4.9,31.51.25,10.37.07,20.73-.9,31.06-.48,5.16-1.24,10.28-2.59,15.3-1.15,4.28-2.8,8.34-5.14,12.11ZM445.37,77.06c-.4-.35-.86-.46-1.42-.48.21.53.57.77,1.01.92,2.24,2.09,3.88,4.61,5.34,7.28,1.28,2.35,2.38,4.77,3.31,7.27,5.16,13.83,7.28,28.13,6.59,42.86-.28,6.06-1.11,12.04-2.59,17.93-2.6,10.34-7.02,19.78-13.8,28.06-1.26,1.54-2.61,3.01-3.94,4.54.17.04.27.11.35.08.44-.13.88-.27,1.31-.43,4.64-1.68,9.34-3.12,14.25-3.7,5.56-.66,10.96-.22,15.94,2.67.22.13.43.29.7.26.05.07.11.13.16.2.02-.04.07-.09.06-.12-.02-.13-.09-.16-.21-.09,0-.15.07-.32.02-.44-1.51-3.57-1.46-7.29-1.06-11.05.53-4.93,1.91-9.65,3.6-14.28,3.77-10.3,8.97-19.9,14.65-29.25.11-.18.23-.34.55-.3.51,1.52.75,3.14,1.02,4.74,1.87,11.14,2.78,22.38,3.4,33.65.06,1.13.2,2.25.45,3.35,1.51,6.66,5.11,12.01,10.31,16.35.24.2.45.51.82.5.13-.36-.03-.58-.12-.81-1.61-4.25-2.03-8.67-1.81-13.16.23-4.68,1.07-9.26,2.23-13.79,2.5-9.79,6.37-19.04,10.98-28,9.18-17.81,19.66-34.83,30.83-51.44.77-1.14.92-2.18.64-3.45-.85-3.94-2.29-7.66-4.1-11.24-2.4-4.73-5.39-9.08-8.8-13.14-1.04-1.24-.9-.96-.18-2.22,1.93-3.37,4.35-6.34,7.24-8.92,2.01-1.79,4.26-3.2,6.78-4.18.59-.23,1.1-.32,1.72.11,1.31.92,1.72.91,2.9-.3.74-.76,1.51-.93,2.47-.87.72.05,1.43.13,2.13.27,4.9.95,8.87,3.62,12.56,6.8.33.29.48.63.51,1.07.2,2.77-.2,5.43-1.6,7.87-2.12,3.7-5.51,5.67-9.44,6.92-.57.18-.86-.08-1.18-.43-.91-.97-1.82-1.95-2.76-2.9-1.23-1.24-2.53-2.41-4.05-3.29-.63-.37-1.28-.78-2.12-.54.14.52.52.74.8,1.02,2.55,2.55,4.82,5.32,6.68,8.42.59.99.6.97,1.8.69.3-.07.62-.43,1.01.02-1.88,3.51-4.15,6.76-7,9.67.6.26,1.04.1,1.48.03,1.28-.19,1.28-.2,1.62,1.1.74,2.82,1.49,5.65,2.23,8.48q.39,1.48-1.1,1.93c-.07.02-.12.14-.18.22.01.33.28.54.4.81.44,1,1.14,1.28,2.22,1.03,1.09-.26,2.23-.34,3.34-.5,2.99-.42,5.99-.86,8.98-1.26.74-.1,1.26-.35,1.37-1.17.06-.45.38-.85.22-1.34-1.38-.24-1.39-.24-1.42-1.67-.08-3.03-.15-6.05-.22-9.08-.03-1.03-.02-1.03,1.08-1.22.38-.07.83.02,1.13-.45-3.79-2.15-7.15-4.81-10.19-8.16.95-.35,1.67-.61,2.38-.88,2.55-.95,5.07-1.96,7.42-3.34.83-.49,1.25-1.07,1.17-2.1-.15-2.1.08-4.21.28-6.3.15-1.58.33-3.18,1.05-4.63.34-.69.23-1.08-.35-1.55-1.68-1.36-3.43-2.62-5.29-3.7-4.16-2.43-8.56-4.18-13.41-4.61-.94-.08-.97-.16-.67-1.02.07-.19.15-.38.22-.58,1.14-3.09,1.44-6.18.05-9.27-.13-.29-.2-.59-.15-.9.32-2.11-.6-4.15-.4-6.26.03-.28-.03-.62-.41-.83-.73.64-1.52.74-2.5.41-1.29-.43-2.66-.33-3.95.07-.72.22-1.28.19-1.84-.27-.17-.14-.38-.13-.59,0-.03.13-.09.27-.11.42-.36,3.07-.01,6.23-1.24,9.18-.02.05-.01.1-.02.15-.63,3.05-.01,5.91,1.35,8.64.57,1.16.58,1.17-.67,1.64-2.47.94-4.72,2.24-6.81,3.83-3.8,2.89-6.83,6.49-9.48,10.43q-1.48,2.2.04,4.34c1.78,2.51,3.66,4.95,5.15,7.65,3.19,5.78,3.81,11.62,1.01,17.82-3.94,8.74-7.81,17.51-11.77,26.24-1.65,3.63-3.33,7.23-5,10.85l-.52.03c.3-.55.28-1.18.47-1.76,1.78-5.56,3.4-11.16,4.85-16.82.77-3.03,1.53-6.07,1.89-9.18.13-1.12.08-1.14-1.01-1.01-2.36.27-4.71.14-7.04-.36-5.07-1.07-9.54-3.38-13.62-6.52-.39-.3-.68-.77-1.25-.82-.02.11-.08.22-.06.31.06.3.14.6.21.89,2.17,8.64,3.35,17.42,3.69,26.31.24,6.42-.13,12.82-1.17,19.17-.83,5.07-2.09,10.03-3.98,14.82-.19.48-.22,1.08-.85,1.39-.13-.46-.26-.85-.35-1.25-1.57-7.21-3.29-14.39-5.27-21.5-1.16-4.15-2.34-8.29-4.05-12.26-.38-.88-.76-1.76-1.54-2.67-6.86,12.55-13.63,24.93-20.12,37.6-.32-.58-.2-1.04-.2-1.48.02-5.8.26-11.59.58-17.38.52-9.33,1.31-18.62,2.85-27.84,1.12-6.74,2.49-13.41,5.55-19.6.03-.07-.02-.18-.03-.28-.39-.05-.65.22-.96.37-2.04.98-4.15,1.75-6.35,2.3-7.53,1.89-15.05,1.56-22.55-.15-1.53-.35-3.09-.6-4.56-1.18ZM70.29,123.94c-.47-.35-.68-.89-.96-1.37-2.24-3.8-4.49-7.59-6.71-11.41-6.51-11.17-13.13-22.28-20.72-32.76-1.22-1.68-1.51-3.4-1.31-5.34.33-3.31,1.42-6.39,2.83-9.37,2.4-5.04,5.63-9.53,9.16-13.82,1.12-1.37.88-1.16-.2-2.14-3.2-2.91-6.63-5.51-10.37-7.68-3.12-1.81-6.38-3.29-9.94-4.02-6.35-1.32-11.65.34-15.78,5.47-.56.69-.67,1.3-.39,2.1,1.27,3.56,3.4,6.41,6.66,8.38,2.31,1.4,5.42,2.31,7.5,2.17-.92-.56-1.82-1.06-2.65-1.63-1.91-1.32-3.39-2.97-3.97-5.3-.62-2.49-.01-3.99,2.19-5.33,2.64-1.6,5.5-1.92,8.46-1.26,4.86,1.09,8.54,4.07,11.88,7.58.56.59.21.99-.16,1.45-1.97,2.43-3.82,4.96-5.59,7.54-3.52,5.13-6.77,10.41-9.04,16.23-.9,2.3-1.59,4.65-1.84,7.12-.09.84.13,1.43.83,1.98,2.06,1.62,3.96,3.42,5.82,5.26,13.03,12.9,23.22,27.73,30.34,44.63,5.63,13.36,8.89,27.28,9.42,41.78.38,10.42.14,20.83-.77,31.22-.7,8.03-1.68,16.01-3.16,23.93-.84,4.49-1.85,8.93-3.08,13.33-.78,2.76-2.22,5.06-4.58,6.73-2.58,1.83-5.52,2.66-8.63,2.97-1.56.16-3.14.21-4.72.31.03.1.03.17.06.19.13.07.27.14.41.18,4.24,1.36,8.56,2.17,13.02,1.78,5.49-.48,9.14-3.18,10.56-8.73.7-2.74.99-5.55,1.35-8.34,1.04-8.03,2.07-16.07,3.32-24.08.33-2.08.55-4.19,1.15-6.23.15,1.18.24,2.35.26,3.52.16,9.39.3,18.78.46,28.17,0,.56-.16,1.19.34,1.8,7.44-7.29,15.47-13.58,25.09-17.53-.06-.23-.07-.33-.11-.42-.21-.41-.42-.82-.63-1.23-4.29-8.39-7.68-17.12-9.52-26.39-1.23-6.18-1.63-12.4-.48-18.65,2.44-13.25,12.59-20.14,22.11-22.12,5.34-1.11,9.93.6,13.43,4.91,1.61,1.97,2.72,4.22,3.57,6.6,1.75,4.89,2.29,9.99,2.4,15.13.14,6.64-.58,13.21-1.62,19.76-.82,5.12-1.89,10.18-3.11,15.21-.3,1.26-.25,1.27,1.04,1.17,6.95-.52,13.84-.21,20.61,1.62.51.14,1.03.4,1.82.28-3.32-8.59-5.76-17.28-6.55-26.42.49.37.56.91.73,1.38,1.4,3.8,2.84,7.58,4.41,11.32,2.07,4.92,4.21,9.8,7.03,14.35.98,1.57,2.02,3.1,3.38,4.37,1.96,1.85,4.35,2.22,6.76,1.04.78-.38,1.54-.82,2.27-1.3,2.64-1.73,4.88-3.9,6.93-6.29,4.31-5.02,7.59-10.69,10.46-16.63.13-.27.39-.55.27-.87-.68.64-1.36,1.26-2.01,1.91-3.43,3.48-7.01,6.77-11.12,9.45-2.28,1.49-4.67,2.76-7.39,3.31-2.11.43-3.95,0-5.64-1.31-1.7-1.31-2.95-2.99-4.06-4.78-2.75-4.45-4.5-9.32-5.93-14.31-3.1-10.81-4.45-21.89-4.84-33.1-.3-8.43.14-16.83,1.23-25.18.95-7.33,2.44-14.56,4.57-21.65,3.78-12.6,9.35-24.29,17.51-34.68.69-.87,1.38-1.74,2.11-2.66-.56-.14-.87.19-1.21.36-4.85,2.36-9.85,4.35-15.05,5.8-7.53,2.1-15.15,3.21-22.96,2-5.48-.85-10.45-2.92-14.75-6.48-.28-.23-.58-.43-1.04-.76.29.98.51,1.71.72,2.44,3.07,10.79,5.27,21.72,5.46,32.99.1,5.98-.36,11.9-2.3,17.61-1.68,4.93-4.36,9.15-8.76,12.13-3.07,2.07-6.38,3.26-10.15,2.77-2-.26-3.91-.83-5.73-1.7-5.18-2.45-9.29-6.21-12.62-10.79-8.69-11.93-11.27-25.29-9-39.71,1.19-7.57,3.95-14.62,7.58-21.35.87-1.62,2.07-2.68,3.86-2.97,5.14-.83,9.81.24,13.76,3.73,2.79,2.47,3.35,5.65,2.35,9.14-.67,2.34-2.72,3.83-5.16,3.89-2.89.06-5.5-1.88-6.57-4.9-.43-1.19-.57-2.44-.66-3.7-.32.08-.4.29-.44.48-1.13,4.99-.16,9.49,3.27,13.32,1.61,1.8,3.72,2.45,6.15,1.98,2.19-.42,4.02-1.48,5.63-2.98,2.72-2.53,4.11-5.72,4.49-9.36.49-4.73-.53-8.99-4.19-12.32-2.01-1.83-4.39-3.01-6.96-3.8-5.42-1.67-10.99-1.89-16.6-1.69-1.29.05-2.07.49-2.79,1.64-3.44,5.53-7.58,10.47-12.8,14.42-1.31.99-2.71,1.85-4.15,2.64-.7.38-.96.21-1.18-.52-.93-3.09-1.9-6.17-2.89-9.25-.25-.77,0-1.13.73-1.37.73-.23,1.43-.56,2.15-.82.8-.29.78-.79.5-1.47-.42-1.03-.57-1.18-1.4-.92-.68.21-1.35.49-2.03.73-1,.35-1.01.35-1.35-.7-.55-1.71-1.09-3.42-1.61-5.14-.22-.73-.6-1.02-1.36-.68-.51.23-1.07.35-1.6.53-1.37.48-1.39.51-.93,1.84.57,1.65,1.12,3.3,1.73,4.93.27.72.19,1.14-.6,1.39-.88.27-1.74.62-2.59.98-1.03.43-1.08.6-.69,1.63.41,1.06.54,1.13,1.56.8,1.16-.37,2.25-.97,3.57-1.23,1.28,3.64,2.54,7.24,3.82,10.89-2.31.68-4.57.59-6.89.93,1.48,2.89,2.72,5.64,3.88,8.43,4.08,9.8,7.55,19.84,11.47,29.7.15.37.39.74.16,1.17l.02-.03ZM659.29,227.46c-.05.17.06.27.18.37,0,0,.09-.06.1-.1.02-.16-.02-.29-.21-.31.07-.32-.07-.6-.18-.89-3.11-7.99-4.37-16.32-4.39-24.85-.02-5.71.55-11.38,1.56-16.99,2.28-12.65,6.39-24.7,12.03-36.23.19-.39.29-.88.8-1.11.45.33.48.87.64,1.33,1.96,5.78,3.67,11.63,5.13,17.56,2.21,8.98,3.78,18.07,4.32,27.31.41,7.08.29,14.16-.87,21.18-.93,5.59-2.3,11.04-4.99,16.09-.09.17-.21.35.07.63,7.46-1.15,14.78-.69,21.67,3.63-.91-6.46-.66-12.61-.39-18.76.32-7.44,1.58-16.64,2.62-18.27.27.23.18.55.21.83.76,6.78,1.57,13.55,2.7,20.28,1.16,6.93,2.56,13.81,4.67,20.53,1.48,4.71,3.23,9.3,5.99,13.44,1.03,1.54,2.2,2.97,3.63,4.17,2.71,2.28,5.82,3.37,9.3,2.42,3.8-1.04,7.68-1.84,11.38-3.26,4.04-1.55,7.81-3.59,11.25-6.22.03-.06.3-.05.07-.18-.05-.03-.11.11-.04.2-.47-.18-.9,0-1.35.12-2.49.62-4.97,1.27-7.46,1.84-3.26.74-6.54,1.31-9.9,1.09-3.22-.21-5.82-1.52-7.51-4.38-.44-.75-.86-1.51-1.23-2.3-1.37-2.94-2.28-6.04-3.04-9.18-2.43-10.02-3.35-20.22-3.64-30.49-.23-8.42.2-16.82,1.09-25.2.98-9.2,2.63-18.26,5.05-27.19,3.66-13.5,8.96-26.29,16.61-38.05,10.15-15.62,23.41-27.78,40.16-36.05.75-.37,1.19-.88,1.5-1.63,2.44-5.83,4.25-11.87,6.04-17.91.4-1.34.39-1.35-.87-1.92-4.55-2.06-8.85-4.53-12.82-7.57-3.72-2.85-7.11-6.05-9.87-9.87-.5-.69-.53-1.21-.08-1.92,1.5-2.4,3.1-4.71,5.08-6.75,1.26-1.29,2.64-2.44,4.26-3.26,2.76-1.4,5.51-1.41,8.24.11,1.41.78,2.58,1.84,3.61,3.08,1.44,1.74,1.56,2.91.49,4.89-.58,1.07-1.43,1.86-2.5,2.43-1.62.86-3.37,1.21-5.18,1.27-.99.04-1.99,0-2.98,0,3.27,2.16,6.71,2.82,10.37,1.45,2.98-1.11,5.11-3.29,7.16-5.65,1.88-2.15,1.83-4.31.67-6.66-.27-.55-.58-1.09-.93-1.59-1.31-1.9-3.1-3.25-5.1-4.36-1.29-.72-2.63-1.04-4.11-1.06-4.26-.06-8.22,1-11.96,2.98-6.17,3.27-10.91,8.1-14.94,13.71-.44.62-.49,1.18-.2,1.85.7,1.6,1.61,3.09,2.56,4.56,2.15,3.31,4.34,6.6,6.47,9.93,1.24,1.95,2.33,3.98,3.13,6.16.58,1.59.62,3.2.21,4.84-.4,1.57-1.05,3-1.99,4.3-1.7,2.35-3.98,3.99-6.58,5.18-1.15.53-2.11,1.25-2.92,2.19-.84.97-1.7,1.92-2.51,2.92-5.94,7.34-11.85,14.7-17.81,22.02-1.48,1.82-2.86,3.74-4.64,5.31l.02.03c-.03-1.5.83-2.71,1.37-4.01,2.99-7.16,6.67-13.96,10.55-20.67.64-1.11,1.24-2.25,1.78-3.41.32-.69.15-.88-.64-.9-.31,0-.62.02-.92.02-1.95,0-3.9.02-5.85-.02-1.06-.02-1.1-.09-.87-1.04.69-2.78,1.44-5.56,2.11-8.34.18-.73.54-.89,1.2-.75.75.16,1.51.27,2.26.45.44.1.82.09,1.1-.3.69-.94.27-2.05-.88-2.29-.4-.09-.8-.16-1.21-.24q-1.58-.33-1.16-1.98c.4-1.54.79-3.08,1.2-4.61.19-.73.04-1.19-.79-1.32-.55-.09-1.09-.29-1.64-.41-1.36-.31-1.49-.23-1.79,1.09-.4,1.75-.8,3.5-1.16,5.25-.13.64-.41.86-1.06.71-.9-.2-1.81-.33-2.72-.49-1.15-.2-1.35-.09-1.55.86-.24,1.18-.07,1.46,1.11,1.7.8.16,1.61.3,2.42.43.72.12,1.04.39.84,1.23-.68,2.89-1.27,5.81-1.91,8.7-.18.82-.35.88-1.2.54-1.25-.49-2.37-1.22-3.46-1.99-5.05-3.54-9.7-7.57-14.26-11.71-.85-.77-1.65-1.05-2.75-.91-4.56.58-8.97,1.68-12.99,3.99-6.32,3.64-10.3,8.96-11.4,16.27-.24,1.63-.25,3.28.22,4.88.21.7.45,1.44,1.28,1.59,2.92.52,5.82.64,8.59-.68,2.88-1.38,4.79-4.58,4.56-7.57.15,0,.19-.04.11-.1-.03.04-.06.08-.09.12-.65.86-.96,1.91-1.6,2.78-1.86,2.51-4.54,3.53-7.58,2.79-1.2-.29-1.41-.56-1.4-1.81.01-1.34.62-2.47,1.33-3.55,1.37-2.08,3.14-3.79,5.08-5.32,2.67-2.11,5.49-3.97,8.85-4.8,2.31-.57,3.51-.12,4.91,1.82.97,1.34,1.59,2.86,2.11,4.42,1.5,4.5,2.22,9.16,2.75,13.85.09.77.01,1.52-.19,2.28-1.79,6.89-3.55,13.8-5.31,20.7-5.15,20.26-10.43,40.5-15.79,60.71-.1.39-.13.87-.51,1.2-.18-.2-.3-.3-.37-.43-.28-.49-.57-.97-.82-1.48-1.96-3.93-3.11-8.13-4.06-12.39-1.86-8.32-2.91-16.76-3.75-25.23-.84-8.48-1.37-16.97-1.75-25.48-.38-8.41-.58-16.82-.65-25.23,0-.32.16-.72-.3-1.02-2.21,2.27-4.93,3.36-8.12,3.31-1.45-.02-2.86-.2-4.27-.48-3.12-.62-6.13-1.68-9.21-2.45-1.65-.41-3.32-.66-5.02-.52-.77.07-1.49.25-2.08.82.1.19.13.35.23.45,3.38,3.42,4.76,7.7,5.35,12.32.71,5.49.32,10.96-.45,16.41-1.05,7.37-2.78,14.6-4.73,21.77-3.04,11.18-6.67,22.18-10.05,33.26-2.64,8.63-5.32,17.24-6.79,26.17-.54,3.29-1.08,6.58-1.37,9.9-.11,1.28-.07,1.3,1.14,1.76,9.73,3.73,18.18,9.4,25.47,16.83.21.21.37.5.73.5ZM351.6,96.14c-.64-.27-.88-.02-1.14.1-2.01.97-3.75,2.31-5.29,3.91-3.3,3.44-5.44,7.56-6.98,12.01-1.94,5.61-2.79,11.43-3.21,17.34-.68,9.69.36,19.15,3.5,28.36,2,5.86,4.68,11.38,8.58,16.24,1.65,2.05,3.49,3.91,5.75,5.3,2.29,1.41,4.73,2.28,7.46,1.52.77-.21,1.23.1,1.76.58,2.92,2.61,6.28,4.42,10.08,5.39,2.36.6,4.76.95,7.13.17.87-.28,1.49-.26,2.27.21,2.87,1.69,5.97,2.71,9.31,2.88,4.45.22,8.54-.87,12.19-3.48.38-.27.68-.52,1.23-.28,1.67.71,3.44.55,5.15.2,5.87-1.2,10.79-4.09,14.78-8.56.54-.6.93-.88,1.8-.57,2.34.85,4.64.53,6.83-.64,1.46-.78,2.73-1.82,3.88-3,2.46-2.53,4.32-5.48,5.86-8.62,4.8-9.79,6.99-20.22,7.33-31.05.25-7.85-.84-15.56-3.03-23.1-1.45-5-3.4-9.79-6.25-14.17-1.89-2.9-4.09-5.53-7.07-7.39-2.93-1.83-6.06-2.45-9.42-1.48-1.07.31-1.07.35-.63,1.35.42.95.95,1.87.85,3.28-1.04-1.62-1.96-2.98-3.18-4.07-4.15-3.73-8.95-5.49-14.56-4.7-1.09.15-1.08.19-.85,1.28.21,1.01.53,2.02.44,3.34-.27-.4-.41-.54-.49-.72-1.5-3.4-4.09-5.57-7.55-6.79-.14-.05-.28-.13-.43-.16-.52-.13-.74-.46-.77-1-.17-3.56-.05-7.09,1.32-10.45,1.8-4.42,5.72-7.11,10.28-6.97,2.9.09,5.46,1.01,7,3.71.98,1.72,1.26,3.53,0,5.21-1.25,1.66-3.03,1.72-4.89,1.3-1.73-.39-3.27-1.19-4.74-2.15-.41-.27-.79-.71-1.26,0-.57.86-.62,1.06.06,1.68.55.51,1.14.97,1.87,1.6-1.02.09-1.75-.11-2.5-.2-.4-.05-.86-.2-1.16.16-.46.56-.8,1.23-.91,1.93-.1.65.57.93,1,1.25,3.71,2.77,7.9,3.52,12.39,2.83,2.34-.36,4.41-1.34,6.06-3.08,4.17-4.39,3.92-11.68-.7-15.76-4.69-4.16-10.29-5.11-16.28-3.91-4.68.94-8.3,3.67-11.28,7.29-3.64,4.43-5.95,9.55-7.66,14.97-.06.19-.11.39.09.63,1.42.15,2.93-.1,4.46.22-.21.36-.42.36-.61.38-4.99.62-8.97,3.02-12.16,6.84-3.01,3.6-4.91,7.79-6.41,12.18-.64,1.88-1.17,3.79-1.75,5.68-.31-1.81.07-3.54.36-5.28.3-1.83.81-3.6,1.41-5.35.58-1.7,1.33-3.33,2.18-4.92.85-1.6,1.99-3.02,3.09-4.67-3.58-.47-6.8-.25-9.94.95-4.86,1.85-8.58,5.16-11.66,9.25-3.93,5.19-6.46,11.05-8.09,17.31-.53,2.03-.94,4.1-1.4,6.15-.04-8.1,1.89-15.65,6.51-22.46ZM637.46,81.92c2.87,1.05,5.81,1.46,8.84.76,2.81-.65,4.69-2.37,5.75-5.06.28-.71.22-1.26-.22-1.85-1.33-1.81-2.96-3.27-4.96-4.29-4.84-2.46-9.86-2.62-14.95-.99-6.75,2.16-11.48,6.75-15.04,12.72-.47.78-.12,1.05.47,1.41,2.72,1.66,5.32,3.49,7.7,5.62,1.19,1.06,2.29,2.21,3.12,3.59,1.44,2.38.98,4.98-1.19,6.73-.84.68-1.79,1.2-2.8,1.59-1.49.58-3.03.94-4.61,1.16-3,.41-6.03.46-9.05.63-4.64.26-9.16,1.06-13.5,2.76-.81.32-1.18.7-1.22,1.64-.12,2.51-.3,5.02-.62,7.51-.93,7.44-2.46,14.76-4.39,22-3.31,12.42-7.72,24.43-12.97,36.15-.76,1.69-1.42,3.41-1.79,5.22-.52,2.54-.76,5.07.11,7.59.37,1.08.98,1.79,2.11,2.24,3.91,1.55,7.71,3.36,11.38,5.43,5.2,2.93,10.23,6.1,14.12,10.75.38.45.76.53,1.34.46,2.09-.26,4.18-.32,6.3-.21,3.18.17,6.33.59,9.45,1.2.64.13.98.02,1.05-.67.03-.3.13-.6.18-.9,1.54-9.12,3.69-18.08,6.84-26.79.11-.31.43-.62.04-1.03-2.67.81-5.37,1.61-8.11,2.23-5.21,1.18-10.46,2.09-15.84,1.94-2.78-.08-5.53-.44-8.1-1.58-3.12-1.38-5.13-3.7-5.76-7.09-.46-2.48.1-4.79,1.3-6.97,1.6-2.92,3.97-5.09,6.82-6.73,6.33-3.65,13.15-4.36,20.24-3.25,4.65.73,9.04,2.27,13.24,4.36,1.16.58,1.18.57,1.71-.52,2.24-4.63,4.01-9.44,5.16-14.45.15-.67.51-1.36.24-2.11-.16.04-.32.06-.45.13-3.84,1.9-7.93,3.09-12.1,3.95-4.83,1-9.68,1.12-14.48-.18-8.17-2.22-12.82-10.03-10.66-18.11,1.35-5.05,4.58-8.65,9.26-10.91,4.89-2.36,10-2.36,15.19-1.26,5.33,1.13,10.2,3.37,14.9,6.06.59.34,1.14.82,1.93.96.68-2.37,1.24-4.66,1.66-6.97.82-4.41,1.18-8.85.44-13.31-.63-3.78-2.28-6.96-5.45-9.31-2.35-1.74-4.75-3.4-7.26-4.91-2.77-1.67-5.39-3.55-7.91-5.59-.63-.51-.83-.99-.35-1.68.29-.42.54-.87.86-1.27,1.54-1.98,3.5-3.46,5.65-4.68,2.91-1.65,5.99-2.67,9.4-2.34,2.02.2,3.75,1,5.2,2.4.86.83.94,1.28.38,2.3-.66,1.19-1.74,1.86-2.96,2.34-1.79.69-3.68.89-5.59,1.18ZM359.96,39.6c.13,1.32.28,2.49.36,3.66.22,3.12.78,6.19,1.55,9.22.09.34.25.67.42.98.39.71.94.72,1.38.02.34-.54.4-1.15.39-1.78-.02-1.49,0-2.98-.07-4.46-.1-2.62.39-5.24.23-7.83-.18-2.79.18-5.53.15-8.29,0-.3.14-.63-.03-.91-.79-1.21-.5-2.58-.59-3.89-.05-.66,0-1.34-.29-1.96-.36-.78-.71-.92-1.43-.5-1.62.93-2.67,2.36-3.47,4.01-.14.29-.22.67.12.81.79.33.77,1.04.85,1.67.21,1.73.38,3.46.55,5.2.1,1.1-.16,1.95-1.32,2.46-.84.37-1.63.85-2.55,1.03-.91.19-1.74.57-2.58.97-1.62.77-3.26,1.48-4.66,2.64-.35.29-.78.5-1.19.71-.74.37-1.02.25-1.16-.59-.18-1.11-.38-2.22-.66-3.31-.55-2.23-1.22-4.44-1.23-6.79,0-1.17-.75-1.6-1.9-1.2-1.2.41-2.11,1.22-2.84,2.25-.51.72-.71,1.5-.26,2.28.78,1.35,1.06,2.85,1.44,4.32.11.44.31.87.51,1.28.42.88.86,1.75,1.1,2.7.32,1.28.77,2.52.3,3.9-.31.92-.05,1.34.98,1.79,1.26.54,2.06,1.47,2.74,2.59.69,1.14,1.34,2.31,2.27,3.28,1.1,1.15,1.76,1.14,2.75-.09.29-.36.5-.77.59-1.23.2-.95.43-1.9.63-2.85.07-.33.26-.69-.16-.96-.57.12-.55.69-.82,1.03-.48.61-.86.68-1.34.06-.44-.56-.8-1.19-1.13-1.82-1.27-2.41-1.1-3.22,1.01-4.97.28-.23.59-.4.88-.62.36-.28.79-.53,1.05-.89.87-1.21,2.1-1.76,3.48-2.09.6-.14,1.28-.21,1.65-.74.54-.77,1.32-.85,2.31-1.09ZM369.12,43.2c-.09.74-.16,1.39-.24,2.05-.19,1.58-.28,3.16-.24,4.75.01.62.05,1.29.78,1.51.6.19,1.43-.45,1.68-1.27.15-.49.32-1,.31-1.5-.04-2.34.64-4.54,1.2-6.77.16-.62.46-.92,1.02-1.2,2.98-1.48,6.05-2.71,9.29-3.51.52-.13.77-.07.89.45.06.25.24.52.18.73-.39,1.38.18,2.73.1,4.09-.08,1.39.18,2.75.13,4.13-.01.34,0,.75.45.88.37.11.71.01,1.01-.22.47-.37.67-.89.82-1.44.41-1.48.31-3.02.64-4.52.29-1.34.42-2.74.4-4.11-.01-.71-.15-1.2.59-1.66.69-.43.64-.89-.1-1.23-.58-.27-.66-.62-.55-1.07.27-1.09.15-2.12-.27-3.15-.16-.38-.21-.82-.08-1.21.44-1.37-.12-2.63-.4-3.91-.18-.82-.69-1.33-1.55-1.5-.7-.14-1.38-.39-2.07-.58-1.47-.41-1.55-.59-.78-1.83.16-.26.36-.5.49-.78.3-.69.07-1.05-.7-1.15-.86-.12-1.57.29-2.33.6-2.09.86-3.27,3.1-5.57,3.62-.09.02-.15.13-.23.2-.41.35-.61.69-.04,1.09.48.33.3.7,0,1.04-.85.94-1.23,2.11-1.63,3.28-.66,1.95-.88,4-1.46,5.97-.49,1.69-.79,3.54-2.77,4.29-.14.05-.25.18-.35.29-.93,1.04-.3,2.15-.08,3.21.16.76.88.14,1.46.42ZM430.04,46.64c.72,0,1.43-.01,2.15,0,1.89.04,3.36-.76,4.51-2.21,1.83-2.32,2.33-4.84,1.2-7.63-1.53-3.78-3.76-7.02-7.06-9.48-1.19-.89-2.41-1.72-3.68-2.49-.47-.28-.94-.38-1.46-.34-1.23.09-2.43.36-3.58.82-.92.37-.97.6-.52,1.51.11.23.25.45.37.68q1.22,2.27-.24,4.46c-.09.13-.16.26-.26.38-1.36,1.8-2.11,3.95-3.28,5.86-.69,1.13-1.53,2.3-1.77,3.55-.29,1.48-.97,2.02-2.32,2.06-.05,0-.1,0-.15.02-.65.17-.71.41-.23.94.17.19.38.34.57.52.7.7.75.99.25,1.87-.2.36-.44.69-.67,1.03-.5.75-.72,1.59-.76,2.47-.05,1.1.57,1.7,1.58,1.54.94-.15,1.68-.73,2.42-1.27.23-.17.25-.44.14-.7-.69-1.57.42-2.73.93-4.02.12-.31.37-.52.72-.42,1.65.48,3.36.19,5.04.42,2.02.28,4.05.65,6.11.44ZM414.51,32.19c0-1.79-.6-3.18-1.5-4.47-2.95-4.18-6.96-6.89-11.8-8.37-.84-.25-1.69-.78-2.66-.52-1.41.39-2.65,1.07-3.81,1.94-.52.39-.54.8-.07,1.28.64.66,1.24,1.36,1.85,2.05.31.35.57.72.38,1.24-.88,2.4-1.64,4.82-2.11,7.34-.33,1.81-1.03,3.58-1.14,5.39-.08,1.27-.27,2.06-1.54,2.38-.15.04-.29.11-.41.2-.42.27-.38.58,0,.84.25.18.52.34.81.44.85.27.89.91.74,1.6-.08.4-.24.78-.38,1.17-.32.9-.3,1.82-.14,2.73.14.8.7,1.26,1.34,1.24.68-.02,2.48-1.53,2.63-2.19.05-.22,0-.41-.13-.58-1.03-1.36-.24-2.76-.1-4.15.03-.33.32-.51.66-.52,1.55-.05,3-.62,4.53-.82,2.84-.38,5.66-.83,8.39-1.77,1.32-.46,2.4-1.13,3.15-2.3.86-1.32,1.25-2.79,1.32-4.18ZM438.53,61.82c.81.13,1.24.01,1.25-.71.01-.72.59-1.05,1.06-1.42,2.07-1.66,7.4-3.79,10.13-4.07,1.12-.11,2.25-.19,3.36-.38,2.92-.48,5.78-1.22,8.56-2.24.98-.36,1.74-1.06,2.44-1.83.43-.46.36-.92-.02-1.37-.35-.42-.8-.64-1.34-.64-2.31,0-4.61.04-6.88.48-3.43.66-6.7,1.87-10.02,2.88-1.74.53-2.12.2-1.79-1.58.02-.1.04-.2.07-.3.67-2.15,1.37-4.28,2.31-6.35.57-1.25,1.61-2.12,2.27-3.27.86-1.49.51-2.51-1.13-3.09-.87-.31-1.73-.61-2.56-1.04-1.06-.55-1.7-.29-2.25.79-.37.73-.38,1.64-.7,2.31-1.14,2.41-1.5,4.98-1.89,7.55-.28,1.88-.37,3.78-.02,5.66.27,1.45.37,1.49-.99,2.05-1.86.77-3.27,2.21-4.98,3.2-.09.05-.16.12-.24.19-.79.73-.76.88-.02,1.74.96,1.11,2.22,1.39,3.36,1.43Z"/>
  <path class="cls-1" d="M746.48,250.23c-3.44,2.63-7.21,4.67-11.25,6.22-3.69,1.42-7.57,2.22-11.38,3.26-3.48.95-6.58-.15-9.3-2.42-1.43-1.2-2.6-2.62-3.63-4.17-2.76-4.14-4.51-8.73-5.99-13.44-2.11-6.71-3.5-13.59-4.67-20.53-1.13-6.73-1.94-13.5-2.7-20.28-.03-.28.06-.6-.21-.83-1.04,1.63-2.3,10.82-2.62,18.27-.26,6.15-.52,12.3.39,18.76-6.89-4.32-14.21-4.77-21.67-3.63-.28-.28-.15-.46-.07-.63,2.68-5.05,4.06-10.5,4.99-16.09,1.16-7.02,1.28-14.1.87-21.18-.54-9.24-2.1-18.33-4.32-27.31-1.46-5.93-3.17-11.78-5.13-17.56-.16-.46-.19-1-.64-1.33-.5.24-.61.72-.8,1.11-5.64,11.54-9.75,23.59-12.03,36.23-1.01,5.61-1.58,11.28-1.56,16.99.02,8.53,1.29,16.86,4.39,24.85.11.29.24.57.18.89l-.06.05c-.36,0-.52-.29-.73-.5-7.29-7.43-15.74-13.1-25.47-16.83-1.21-.46-1.25-.48-1.14-1.76.3-3.32.83-6.61,1.37-9.9,1.47-8.93,4.16-17.55,6.79-26.17,3.39-11.08,7.01-22.08,10.05-33.26,1.95-7.18,3.68-14.41,4.73-21.77.78-5.45,1.17-10.92.45-16.41-.6-4.62-1.98-8.91-5.35-12.32-.1-.1-.14-.26-.23-.45.59-.57,1.31-.75,2.08-.82,1.71-.15,3.37.1,5.02.52,3.08.77,6.09,1.83,9.21,2.45,1.41.28,2.83.46,4.27.48,3.19.04,5.91-1.04,8.12-3.31.46.31.29.7.3,1.02.07,8.41.28,16.83.65,25.23.38,8.51.92,17,1.75,25.48.84,8.47,1.88,16.92,3.75,25.23.95,4.26,2.1,8.46,4.06,12.39.25.5.54.99.82,1.48.07.13.19.23.37.43.38-.34.4-.81.51-1.2,5.36-20.21,10.63-40.44,15.79-60.71,1.76-6.9,3.52-13.8,5.31-20.7.2-.76.27-1.51.19-2.28-.52-4.69-1.25-9.35-2.75-13.85-.52-1.56-1.14-3.08-2.11-4.42-1.4-1.93-2.6-2.39-4.91-1.82-3.36.83-6.19,2.69-8.85,4.8-1.94,1.53-3.71,3.24-5.08,5.32-.71,1.08-1.32,2.21-1.33,3.55-.01,1.25.2,1.52,1.4,1.81,3.04.74,5.72-.27,7.58-2.79.65-.87.95-1.92,1.6-2.78l-.02-.02c.23,2.99-1.67,6.19-4.56,7.57-2.77,1.32-5.67,1.2-8.59.68-.83-.15-1.07-.89-1.28-1.59-.47-1.61-.46-3.26-.22-4.88,1.1-7.31,5.08-12.63,11.4-16.27,4.02-2.31,8.42-3.41,12.99-3.99,1.11-.14,1.9.14,2.75.91,4.56,4.13,9.21,8.17,14.26,11.71,1.09.76,2.21,1.49,3.46,1.99.85.34,1.01.28,1.2-.54.65-2.9,1.23-5.81,1.91-8.7.2-.84-.12-1.11-.84-1.23-.81-.13-1.62-.27-2.42-.43-1.18-.24-1.35-.52-1.11-1.7.2-.95.4-1.06,1.55-.86.91.16,1.82.29,2.72.49.65.14.93-.07,1.06-.71.36-1.76.77-3.5,1.16-5.25.3-1.32.43-1.4,1.79-1.09.55.12,1.08.32,1.64.41.82.14.98.6.79,1.32-.41,1.53-.8,3.07-1.2,4.61q-.43,1.64,1.16,1.98c.4.08.8.15,1.21.24,1.14.24,1.57,1.35.88,2.29-.28.38-.66.4-1.1.3-.75-.17-1.51-.29-2.26-.45-.66-.14-1.02.02-1.2.75-.67,2.79-1.42,5.56-2.11,8.34-.24.95-.19,1.02.87,1.04,1.95.04,3.9.02,5.85.02.31,0,.62-.03.92-.02.79.02.96.21.64.9-.54,1.16-1.14,2.3-1.78,3.41-3.88,6.71-7.56,13.51-10.55,20.67-.54,1.3-1.41,2.51-1.37,4.01-.19-.07-.23,0-.16.17.05-.06.09-.13.14-.19,1.77-1.57,3.16-3.49,4.64-5.31,5.96-7.32,11.87-14.68,17.81-22.02.81-1,1.67-1.95,2.51-2.92.82-.94,1.77-1.66,2.92-2.19,2.6-1.19,4.87-2.83,6.58-5.18.94-1.3,1.6-2.73,1.99-4.3.42-1.64.37-3.25-.21-4.84-.79-2.18-1.88-4.22-3.13-6.16-2.13-3.33-4.32-6.62-6.47-9.93-.95-1.46-1.85-2.95-2.56-4.56-.29-.67-.24-1.23.2-1.85,4.03-5.61,8.77-10.44,14.94-13.71,3.74-1.98,7.7-3.04,11.96-2.98,1.48.02,2.82.35,4.11,1.06,2,1.11,3.79,2.46,5.1,4.36.35.5.66,1.04.93,1.59,1.16,2.35,1.21,4.51-.67,6.66-2.05,2.35-4.18,4.53-7.16,5.65-3.66,1.37-7.1.71-10.37-1.45.99,0,1.99.03,2.98,0,1.81-.06,3.56-.41,5.18-1.27,1.07-.57,1.93-1.36,2.5-2.43,1.07-1.98.95-3.16-.49-4.89-1.02-1.24-2.2-2.29-3.61-3.08-2.73-1.52-5.48-1.51-8.24-.11-1.62.82-3,1.96-4.26,3.26-1.98,2.03-3.58,4.35-5.08,6.75-.45.72-.42,1.23.08,1.92,2.76,3.82,6.14,7.02,9.87,9.87,3.97,3.04,8.27,5.51,12.82,7.57,1.26.57,1.27.58.87,1.92-1.8,6.04-3.61,12.08-6.04,17.91-.31.75-.76,1.26-1.5,1.63-16.74,8.27-30.01,20.43-40.16,36.05-7.64,11.76-12.94,24.55-16.61,38.05-2.42,8.92-4.07,17.99-5.05,27.19-.89,8.38-1.32,16.78-1.09,25.2.28,10.27,1.21,20.48,3.64,30.49.76,3.14,1.67,6.24,3.04,9.18.37.79.79,1.55,1.23,2.3,1.69,2.85,4.29,4.16,7.51,4.38,3.36.22,6.65-.35,9.9-1.09,2.5-.57,4.98-1.22,7.46-1.84.45-.11.88-.3,1.35-.12l-.02-.02Z"/>
  <path class="cls-1" d="M70.27,123.97c.23-.43,0-.8-.16-1.17-3.92-9.86-7.4-19.89-11.47-29.7-1.16-2.79-2.4-5.54-3.88-8.43,2.32-.34,4.58-.25,6.89-.93-1.28-3.66-2.54-7.26-3.82-10.89-1.33.26-2.41.86-3.57,1.23-1.02.33-1.15.26-1.56-.8-.4-1.03-.34-1.19.69-1.63.85-.36,1.71-.7,2.59-.98.8-.25.88-.67.6-1.39-.61-1.63-1.17-3.28-1.73-4.93-.46-1.33-.44-1.36.93-1.84.53-.19,1.09-.31,1.6-.53.77-.34,1.14-.06,1.36.68.52,1.72,1.06,3.43,1.61,5.14.34,1.05.35,1.05,1.35.7.68-.24,1.34-.52,2.03-.73.83-.26.98-.11,1.4.92.28.68.29,1.18-.5,1.47-.72.26-1.42.59-2.15.82-.72.23-.98.6-.73,1.37.99,3.07,1.96,6.15,2.89,9.25.22.73.48.91,1.18.52,1.44-.79,2.84-1.65,4.15-2.64,5.22-3.96,9.36-8.9,12.8-14.42.72-1.15,1.5-1.6,2.79-1.64,5.62-.2,11.18.01,16.6,1.69,2.58.79,4.95,1.97,6.96,3.8,3.66,3.33,4.68,7.59,4.19,12.32-.38,3.64-1.77,6.83-4.49,9.36-1.61,1.5-3.43,2.56-5.63,2.98-2.43.47-4.54-.18-6.15-1.98-3.43-3.84-4.4-8.34-3.27-13.32.04-.19.12-.4.44-.48.09,1.26.23,2.51.66,3.7,1.08,3.01,3.68,4.96,6.57,4.9,2.44-.05,4.49-1.55,5.16-3.89,1.01-3.49.45-6.67-2.35-9.14-3.94-3.49-8.62-4.56-13.76-3.73-1.79.29-2.98,1.35-3.86,2.97-3.63,6.73-6.38,13.78-7.58,21.35-2.27,14.41.31,27.78,9,39.71,3.34,4.58,7.44,8.33,12.62,10.79,1.82.86,3.72,1.43,5.73,1.7,3.77.49,7.08-.7,10.15-2.77,4.4-2.97,7.08-7.2,8.76-12.13,1.95-5.71,2.41-11.62,2.3-17.61-.19-11.26-2.39-22.2-5.46-32.99-.21-.74-.43-1.47-.72-2.44.46.33.76.53,1.04.76,4.3,3.56,9.27,5.63,14.75,6.48,7.81,1.21,15.43.1,22.96-2,5.2-1.45,10.2-3.44,15.05-5.8.35-.17.66-.5,1.21-.36-.73.92-1.43,1.78-2.11,2.66-8.16,10.38-13.73,22.08-17.51,34.68-2.13,7.09-3.62,14.31-4.57,21.65-1.08,8.36-1.52,16.76-1.23,25.18.39,11.21,1.74,22.29,4.84,33.1,1.43,4.99,3.18,9.86,5.93,14.31,1.11,1.8,2.36,3.47,4.06,4.78,1.69,1.3,3.53,1.74,5.64,1.31,2.73-.55,5.11-1.82,7.39-3.31,4.11-2.68,7.69-5.97,11.12-9.45.65-.66,1.34-1.27,2.01-1.91.12.32-.14.59-.27.87-2.86,5.93-6.14,11.61-10.46,16.63-2.05,2.38-4.29,4.56-6.93,6.29-.73.48-1.49.91-2.27,1.3-2.41,1.18-4.79.82-6.76-1.04-1.35-1.28-2.4-2.8-3.38-4.37-2.82-4.55-4.96-9.43-7.03-14.35-1.57-3.74-3.01-7.52-4.41-11.32-.17-.46-.24-1.01-.73-1.38.79,9.14,3.23,17.82,6.55,26.42-.79.12-1.3-.15-1.82-.28-6.77-1.83-13.66-2.14-20.61-1.62-1.28.1-1.34.09-1.04-1.17,1.22-5.03,2.29-10.1,3.11-15.21,1.05-6.54,1.77-13.12,1.62-19.76-.11-5.14-.65-10.24-2.4-15.13-.85-2.38-1.96-4.62-3.57-6.6-3.5-4.3-8.09-6.02-13.43-4.91-9.51,1.98-19.67,8.87-22.11,22.12-1.15,6.26-.75,12.47.48,18.65,1.84,9.27,5.23,18,9.52,26.39.21.41.43.82.63,1.23.04.09.05.19.11.42-9.62,3.95-17.66,10.24-25.09,17.53-.5-.61-.33-1.24-.34-1.8-.16-9.39-.31-18.78-.46-28.17-.02-1.17-.11-2.35-.26-3.52-.6,2.05-.82,4.15-1.15,6.23-1.25,8-2.27,16.04-3.32,24.08-.36,2.8-.65,5.61-1.35,8.34-1.43,5.54-5.08,8.24-10.56,8.73-4.46.39-8.79-.41-13.02-1.78-.14-.05-.28-.11-.41-.18-.03-.02-.03-.09-.06-.19,1.58-.1,3.15-.15,4.72-.31,3.1-.31,6.04-1.14,8.63-2.97,2.36-1.67,3.8-3.97,4.58-6.73,1.23-4.4,2.25-8.84,3.08-13.33,1.48-7.92,2.46-15.91,3.16-23.93.91-10.39,1.15-20.8.77-31.22-.53-14.51-3.79-28.42-9.42-41.78-7.12-16.91-17.32-31.74-30.34-44.63-1.86-1.84-3.76-3.64-5.82-5.26-.7-.55-.92-1.14-.83-1.98.26-2.47.94-4.83,1.84-7.12,2.27-5.82,5.53-11.1,9.04-16.23,1.77-2.58,3.62-5.11,5.59-7.54.37-.46.73-.86.16-1.45-3.34-3.51-7.02-6.49-11.88-7.58-2.96-.66-5.82-.34-8.46,1.26-2.21,1.34-2.81,2.83-2.19,5.33.58,2.32,2.06,3.98,3.97,5.3.84.58,1.73,1.07,2.65,1.63-2.08.14-5.18-.77-7.5-2.17-3.26-1.97-5.39-4.82-6.66-8.38-.29-.8-.17-1.41.39-2.1,4.13-5.12,9.44-6.79,15.78-5.47,3.55.74,6.81,2.22,9.94,4.02,3.74,2.17,7.18,4.77,10.37,7.68,1.08.98,1.32.77.2,2.14-3.53,4.29-6.76,8.78-9.16,13.82-1.42,2.98-2.5,6.06-2.83,9.37-.2,1.95.09,3.66,1.31,5.34,7.59,10.48,14.21,21.59,20.72,32.76,2.22,3.81,4.47,7.61,6.71,11.41.28.48.49,1.02.96,1.37.05.07.1.15.14.22.02-.06.07-.13.05-.19-.03-.1-.12-.1-.21,0Z"/>
  <path class="cls-1" d="M351.6,96.14c-4.62,6.82-6.54,14.36-6.51,22.46.46-2.05.87-4.11,1.4-6.15,1.63-6.27,4.16-12.12,8.09-17.31,3.09-4.08,6.8-7.39,11.66-9.25,3.13-1.2,6.36-1.41,9.94-.95-1.1,1.65-2.24,3.07-3.09,4.67-.85,1.59-1.6,3.22-2.18,4.92-.6,1.75-1.1,3.52-1.41,5.35-.29,1.74-.66,3.48-.36,5.28.58-1.9,1.11-3.81,1.75-5.68,1.5-4.39,3.4-8.58,6.41-12.18,3.19-3.82,7.18-6.21,12.16-6.84.19-.02.4-.02.61-.38-1.53-.32-3.04-.07-4.46-.22-.2-.23-.15-.43-.09-.63,1.7-5.43,4.02-10.55,7.66-14.97,2.98-3.62,6.6-6.36,11.28-7.29,5.99-1.2,11.58-.25,16.28,3.91,4.61,4.08,4.87,11.37.7,15.76-1.66,1.74-3.73,2.72-6.06,3.08-4.49.69-8.68-.06-12.39-2.83-.43-.32-1.1-.6-1-1.25.11-.7.45-1.37.91-1.93.3-.37.77-.21,1.16-.16.75.09,1.48.29,2.5.2-.74-.63-1.32-1.09-1.87-1.6-.68-.62-.63-.82-.06-1.68.47-.71.85-.26,1.26,0,1.47.96,3.01,1.76,4.74,2.15,1.86.42,3.64.36,4.89-1.3,1.26-1.68.99-3.49,0-5.21-1.54-2.7-4.09-3.62-7-3.71-4.55-.14-8.47,2.55-10.28,6.97-1.37,3.36-1.49,6.89-1.32,10.45.03.54.25.87.77,1,.15.04.29.11.43.16,3.46,1.22,6.05,3.39,7.55,6.79.08.17.21.32.49.72.08-1.33-.23-2.33-.44-3.34-.23-1.1-.23-1.13.85-1.28,5.61-.79,10.41.97,14.56,4.7,1.22,1.1,2.14,2.45,3.18,4.07.1-1.41-.44-2.33-.85-3.28-.44-1-.44-1.04.63-1.35,3.37-.97,6.5-.35,9.42,1.48,2.98,1.86,5.18,4.49,7.07,7.39,2.85,4.38,4.8,9.17,6.25,14.17,2.19,7.54,3.28,15.25,3.03,23.1-.35,10.83-2.53,21.26-7.33,31.05-1.54,3.14-3.4,6.09-5.86,8.62-1.15,1.19-2.42,2.22-3.88,3-2.18,1.17-4.48,1.49-6.83.64-.87-.32-1.27-.03-1.8.57-3.99,4.46-8.91,7.36-14.78,8.56-1.71.35-3.47.51-5.15-.2-.55-.24-.86.01-1.23.28-3.65,2.61-7.74,3.7-12.19,3.48-3.34-.17-6.45-1.18-9.31-2.88-.79-.46-1.41-.49-2.27-.21-2.37.78-4.77.43-7.13-.17-3.8-.97-7.16-2.78-10.08-5.39-.53-.47-.99-.79-1.76-.58-2.73.75-5.16-.12-7.46-1.52-2.26-1.39-4.1-3.24-5.75-5.3-3.9-4.86-6.58-10.38-8.58-16.24-3.14-9.2-4.19-18.66-3.5-28.36.42-5.91,1.26-11.73,3.21-17.34,1.54-4.45,3.68-8.58,6.98-12.01,1.54-1.6,3.28-2.95,5.29-3.91.26-.12.51-.37,1.14-.1ZM419.26,153.36c.17.05.29.06.36.12.3.28.6.56.88.86,2.14,2.23,3.53,4.88,4.58,7.76.43,1.19.64,1.22,1.57.38,1.51-1.36,2.6-3.04,3.54-4.81,4.51-8.56,6.45-17.66,5.66-27.33-.44-5.33-1.86-10.38-4.27-15.14-.25-.49-.42-1.04-.9-1.41-.16.33-.01.61.05.9.38,1.7.63,3.42.78,5.16.43,5.2-.03,10.35-.97,15.46-.66,3.58-1.56,7.11-3.15,10.42-.37.77-.73,1.56-1.4,2.13-.46-.29-.51-.73-.69-1.08-1.92-3.75-4.52-6.96-7.76-9.65-1.85-1.54-1.84-1.52-2.38.86-1.04,4.6-2.05,9.21-3.71,13.64-.28.75-.53,1.53-1.16,2.21-1.34-1.9-2.59-3.76-3.92-5.56-1.32-1.8-2.6-3.64-4.28-5.44-1.81,4.63-3.54,9.04-5.37,13.71-3.24-3.8-6.31-7.41-9.54-11.19-2.49,5.48-4.19,10.97-5.4,16.9-4.35-2.97-6.78-7.3-9.75-11.41-1.55,3.45-2.52,6.87-3.48,10.47-3.56-2.02-5.72-5.25-8.32-8.2-1.36,2.54-2.13,5.11-2.85,7.81-.92-.41-1.53-1.01-2.17-1.59-3.22-2.95-5.67-6.46-7.69-10.31-.17-.32-.21-.79-.74-.85-.09.8.02,1.56.18,2.31.88,4.34,2.66,8.29,5.25,11.86,1.73,2.39,3.8,4.45,6.36,5.96.9.53.98.49,1.18-.5.42-2.12.96-4.2,1.78-6.19.19-.46.27-1,.88-1.34,1.56,1.73,3.13,3.49,4.71,5.23,1.14,1.25,2.3,2.49,3.66,3.51.28.21.58.52.95.38.43-.16.27-.61.29-.95.13-2.88.57-5.71,1.25-8.51.08-.32.07-.71.56-.85,3.5,4.4,7,8.8,11.64,12.43.85-4.57,1.78-8.88,3.77-13.08,3.9,3.58,7.09,7.5,10.46,11.63,1.35-4.57,2.61-8.83,3.86-13.06.37-.04.55.16.73.33,3,2.78,5.25,6.12,7.23,9.89,3.56-4.24,5.86-8.94,7.74-13.86ZM399.15,126.97c.66.11,1.04-.2,1.46-.36,5.37-2.07,10.76-4.05,16.62-4.12.46,0,.77-.2,1.04-.55,2.11-2.76,3.68-5.79,4.52-9.18.16-.67-.03-1.2-.53-1.66-2-1.85-4.29-3.14-7.02-3.57-1.2-.19-2.23.14-3.14.9-.87.73-1.65,1.54-2.36,2.42-3.97,4.87-7.22,10.21-10.41,15.6-.08.13-.1.28-.17.51ZM374.07,135.09c-.11-.09-.22-.22-.35-.26-5.01-1.59-9.66-3.95-14.17-6.59-1.22-.71-2.39-.78-3.67-.39-1.58.48-3.03,1.24-4.45,2.06-1.15.66-1.23.85-.74,2.08,1.58,3.97,4.52,6.27,8.76,6.75,2.94.34,5.82-.03,8.6-1.12,1.81-.71,3.63-1.39,5.45-2.09.21-.08.49-.11.59-.43ZM380.06,139.86c1.12-1.17,2.3-2.3,3.36-3.53.88-1.03,1.79-1.2,3.09-.84,1.73.48,3.52.86,5.51.94-.31-.62-.73-.91-1.12-1.23-2.19-1.78-4.52-3.36-6.86-4.92-.97-.65-1.01-.65-1.56.43-1.44,2.86-2.27,5.9-2.42,9.15Z"/>
  <path class="cls-4" d="M472.43,184.31c-.28.03-.49-.13-.7-.26-4.98-2.89-10.38-3.33-15.94-2.67-4.91.58-9.62,2.02-14.25,3.7-.43.16-.87.3-1.31.43-.08.02-.19-.04-.35-.08,1.33-1.53,2.68-3,3.94-4.54,6.78-8.27,11.2-17.72,13.8-28.06,1.48-5.88,2.31-11.86,2.59-17.93.69-14.74-1.43-29.03-6.59-42.86-.93-2.5-2.04-4.92-3.31-7.27-1.45-2.67-3.09-5.19-5.34-7.28.14-.15.28-.3.41-.44,1.47.57,3.03.83,4.56,1.18,7.5,1.71,15.02,2.03,22.55.15,2.2-.55,4.31-1.32,6.35-2.3.31-.15.58-.42.96-.37.01.1.06.21.03.28-3.06,6.19-4.43,12.87-5.55,19.6-1.54,9.22-2.33,18.52-2.85,27.84-.32,5.79-.56,11.58-.58,17.38,0,.44-.12.89.2,1.48,6.49-12.67,13.26-25.04,20.12-37.6.78.91,1.16,1.79,1.54,2.67,1.71,3.97,2.89,8.11,4.05,12.26,1.98,7.11,3.7,14.29,5.27,21.5.09.4.22.79.35,1.25.63-.31.66-.91.85-1.39,1.89-4.79,3.15-9.75,3.98-14.82,1.04-6.35,1.41-12.75,1.17-19.17-.34-8.89-1.52-17.67-3.69-26.31-.07-.3-.16-.59-.21-.89-.02-.09.04-.2.06-.31.56.05.86.52,1.25.82,4.08,3.14,8.55,5.45,13.62,6.52,2.33.49,4.67.63,7.04.36,1.1-.13,1.14-.11,1.01,1.01-.35,3.12-1.11,6.15-1.89,9.18-1.44,5.65-3.07,11.26-4.85,16.82-.19.58-.17,1.21-.47,1.76-.48.87-.67,1.81-.88,3.07.72-1.14,1.18-2.06,1.4-3.09,1.67-3.62,3.35-7.23,5-10.85,3.97-8.73,7.84-17.5,11.77-26.24,2.8-6.2,2.18-12.04-1.01-17.82-1.49-2.7-3.37-5.15-5.15-7.65q-1.52-2.13-.04-4.34c2.65-3.94,5.67-7.54,9.48-10.43,2.09-1.59,4.35-2.9,6.81-3.83,1.25-.48,1.24-.49.67-1.64-1.36-2.74-1.98-5.59-1.35-8.64.01-.05,0-.11.02-.15,1.23-2.95.88-6.11,1.24-9.18.02-.15.07-.29.11-.42.22-.12.43-.13.59,0,.56.47,1.12.5,1.84.27,1.29-.4,2.66-.5,3.95-.07.98.33,1.78.23,2.5-.41.37.21.43.55.41.83-.2,2.11.71,4.15.4,6.26-.05.31.02.61.15.9,1.39,3.1,1.09,6.19-.05,9.27-.07.19-.15.38-.22.58-.3.87-.26.94.67,1.02,4.85.43,9.25,2.19,13.41,4.61,1.86,1.09,3.61,2.35,5.29,3.7.58.47.69.86.35,1.55-.72,1.44-.91,3.05-1.05,4.63-.19,2.09-.43,4.19-.28,6.3.08,1.03-.34,1.61-1.17,2.1-2.35,1.39-4.87,2.39-7.42,3.34-.71.27-1.43.53-2.38.88,3.04,3.36,6.4,6.02,10.19,8.16-.3.47-.75.39-1.13.45-1.1.19-1.1.18-1.08,1.22.07,3.03.15,6.05.22,9.08.04,1.43.04,1.43,1.42,1.67.16.49-.16.89-.22,1.34-.11.82-.63,1.07-1.37,1.17-3,.4-5.99.84-8.98,1.26-1.12.16-2.25.24-3.34.5-1.08.26-1.78-.02-2.22-1.03-.12-.28-.39-.48-.4-.81.06-.08.11-.19.18-.22q1.49-.45,1.1-1.93c-.74-2.83-1.48-5.65-2.23-8.48-.34-1.3-.35-1.3-1.62-1.1-.44.07-.88.23-1.48-.03,2.84-2.91,5.12-6.15,7-9.67-.38-.44-.71-.09-1.01-.02-1.2.28-1.21.3-1.8-.69-1.85-3.1-4.13-5.87-6.68-8.42-.28-.28-.66-.49-.8-1.02.84-.24,1.49.17,2.12.54,1.52.88,2.82,2.05,4.05,3.29.94.95,1.85,1.92,2.76,2.9.33.35.61.61,1.18.43,3.93-1.25,7.32-3.22,9.44-6.92,1.4-2.44,1.8-5.1,1.6-7.87-.03-.44-.17-.78-.51-1.07-3.69-3.19-7.66-5.85-12.56-6.8-.71-.14-1.41-.22-2.13-.27-.96-.06-1.73.11-2.47.87-1.18,1.21-1.59,1.22-2.9.3-.62-.43-1.13-.34-1.72-.11-2.51.98-4.77,2.39-6.78,4.18-2.9,2.58-5.32,5.56-7.24,8.92-.72,1.26-.86.98.18,2.22,3.4,4.06,6.39,8.41,8.8,13.14,1.82,3.58,3.25,7.3,4.1,11.24.28,1.27.12,2.31-.64,3.45-11.18,16.61-21.65,33.63-30.83,51.44-4.62,8.96-8.48,18.21-10.98,28-1.16,4.53-1.99,9.12-2.23,13.79-.22,4.49.2,8.91,1.81,13.16.09.23.25.45.12.81-.37.01-.57-.3-.82-.5-5.2-4.34-8.8-9.68-10.31-16.35-.25-1.1-.39-2.22-.45-3.35-.62-11.27-1.53-22.51-3.4-33.65-.27-1.6-.51-3.22-1.02-4.74-.32-.04-.44.13-.55.3-5.68,9.35-10.87,18.95-14.65,29.25-1.7,4.63-3.07,9.35-3.6,14.28-.41,3.76-.45,7.48,1.06,11.05.05.12-.01.29-.02.44h-.01ZM571.48,77.91c0-.56,0-1.12,0-1.69,0-.51-.26-.74-.78-.68-1.06.14-2.13.26-3.19.41-1.02.15-1.03.17-.91,1.28.04.41.07.82.13,1.22.31,2.34.33,2.4,2.63,2.02,2.74-.45,2.13.03,2.13-2.57ZM571.32,72.32h-.03c0-.31,0-.61,0-.92.02-.96.07-1.37-1.17-1.08-.55.13-1.12.12-1.67.24-.88.2-2.09-.17-2.57.64-.48.81.2,1.87.2,2.84,0,.63.31.9,1,.77,1.05-.2,2.13-.3,3.19-.45,1.04-.15,1.04-.16,1.05-1.27,0-.26,0-.51,0-.77ZM565.74,80.18c-.05-3.92-.21-4.04-4.06-3.36-.1.02-.2.02-.31.03-.55.04-.7.37-.58.85.26,1.04.55,2.08.8,3.12.14.58.51.69,1.03.62.81-.12,1.62-.24,2.43-.33.61-.07.77-.41.68-.93ZM560.61,75.73c1.42-.19,2.53-.35,3.64-.49.59-.08.78-.38.64-.95-.06-.24-.06-.51-.09-.76-.38-2.7-.07-2.47-2.75-2.03-.9.15-2.28-.27-2.56.75-.23.85.41,1.94.65,2.93.11.43.37.57.47.56Z"/>
  <path class="cls-1" d="M162.9,199.13c.77.59,1.5,1.23,2.3,1.76,2.21,1.44,4.35,1.29,6.37-.4,1.2-1,2.09-2.25,2.86-3.6,2.1-3.7,3.31-7.72,4.25-11.83,2.17-9.46,2.78-19.06,2.5-28.74-.22-7.56-1.11-15.03-3.13-22.34-.99-3.57-2.23-7.05-4.09-10.26-.54-.93-.43-1.58.16-2.35,1.96-2.59,4.28-4.84,6.73-6.95.49-.42,1.09-.75,1.48-1.5-2.29.49-4.35,1.25-6.37,2.11-2.01.85-3.79,2.13-5.79,3.3-.16-3.47,5.51-13.84,9.56-18.39.5.38,1.01.77,1.52,1.16,3.32,2.54,6.99,4.14,11.26,3.75,5.23-.49,9.49-2.86,12.6-7.1,1.87-2.55,2.15-5.49,1.43-8.53-.64-2.74-1.98-5.15-3.67-7.38-.36-.47-.75-.78-1.39-.8-2.52-.08-5.03-.05-7.47.69-1.54.47-2.95,1.17-4.06,2.39-2.13,2.33-2.2,5.95-.1,8.3,1.27,1.43,2.91,1.9,4.75,1.5,2.7-.59,4.58-2.19,5.48-4.87.51.81.64,1.75.44,2.99-.65,4.06-5.18,7.24-9.25,6.49-2.12-.39-3.98-1.27-5.59-2.73-4.82-4.38-3.7-11.92.88-15.22,2.74-1.98,5.86-2.91,9.12-3.43,3.51-.56,7.04-.66,10.59-.36.57.05,1.08.03,1.34.74,1.28,3.54,3.53,6.48,6.06,9.18,1.26,1.34,1.71,2.65,1.6,4.5-.45,7.43-.39,14.87-.02,22.31.37,7.39,1.14,14.72,2.56,21.98,1.39,7.12,3.29,14.08,6.62,20.58,1.39,2.71,3.01,5.25,5.26,7.35,1.1,1.02,2.31,1.88,3.75,2.36,2.07.7,3.95.26,5.65-1.04,1.55-1.18,2.55-2.79,3.42-4.49.6-1.18,1.01-2.45,1.77-3.66,0,1.12.03,2.25,0,3.37-.17,5.23-1.1,10.29-3.41,15.04-.77,1.57-1.68,3.05-2.73,4.45-.36.48-.7.6-1.3.35-8.94-3.7-17.93-3.13-26.93-.24-1.22.39-2.41.85-3.61,1.28-.32-.36-.06-.69.01-1.02,1.06-4.44,2.02-8.9,2.4-13.46.29-3.59.4-7.17-.47-10.71-.31-1.25-.75-2.44-1.4-3.56-1.61-2.76-4.01-4.14-7.19-4.25-2.23-.08-3.82.97-5.05,2.7-1.52,2.13-2.3,4.57-2.91,7.07-.9,3.7-1.31,7.47-1.58,11.26-.48,6.72-.3,13.44.05,20.15.04.67.07,1.3-.32,1.92-2.87,4.57-5.87,9.04-9.75,12.84-1.36,1.33-2.83,2.54-4.5,3.46-4.08,2.25-7.79,1.4-10.51-2.39-1.2-1.67-2.14-3.47-2.73-5.44.08-.24.02-.55.36-.66,0,0,0,.01,0,.01-.03.19.05.3.22.35ZM189.41,133.05c-.05,1.34.44,3.54.95,5.74.3,1.32,1.1,1.91,2.33,2.06,4.91.59,9.64-1.75,11.26-6.75.97-2.99,1.02-6.03.38-9.1-.25-1.22-.66-2.37-1.31-3.42-1.82-2.94-5.21-3.73-8.14-1.9-.87.55-1.63,1.23-2.26,2.06-2.32,3.07-3.16,6.6-3.21,11.31Z"/>
  <path class="cls-1" d="M637.46,81.92c1.91-.29,3.8-.48,5.59-1.18,1.22-.47,2.3-1.15,2.96-2.34.56-1.02.48-1.47-.38-2.3-1.45-1.4-3.19-2.21-5.2-2.4-3.41-.33-6.49.69-9.4,2.34-2.16,1.23-4.12,2.71-5.65,4.68-.31.4-.56.85-.86,1.27-.48.69-.28,1.17.35,1.68,2.52,2.03,5.14,3.92,7.91,5.59,2.51,1.51,4.91,3.17,7.26,4.91,3.17,2.35,4.82,5.52,5.45,9.31.74,4.46.38,8.9-.44,13.31-.43,2.31-.99,4.6-1.66,6.97-.79-.15-1.33-.62-1.93-.96-4.7-2.69-9.57-4.93-14.9-6.06-5.19-1.1-10.3-1.1-15.19,1.26-4.68,2.26-7.91,5.86-9.26,10.91-2.16,8.07,2.49,15.89,10.66,18.11,4.8,1.31,9.65,1.18,14.48.18,4.18-.86,8.26-2.05,12.1-3.95.13-.07.29-.08.45-.13.27.76-.08,1.44-.24,2.11-1.16,5.02-2.92,9.82-5.16,14.45-.53,1.09-.55,1.09-1.71.52-4.2-2.09-8.59-3.63-13.24-4.36-7.1-1.11-13.92-.4-20.24,3.25-2.85,1.64-5.21,3.82-6.82,6.73-1.19,2.17-1.76,4.49-1.3,6.97.63,3.4,2.65,5.71,5.76,7.09,2.58,1.14,5.32,1.51,8.1,1.58,5.37.15,10.62-.76,15.84-1.94,2.75-.62,5.44-1.42,8.11-2.23.39.41.07.72-.04,1.03-3.15,8.71-5.3,17.67-6.84,26.79-.05.3-.15.6-.18.9-.07.69-.41.79-1.05.67-3.12-.61-6.27-1.04-9.45-1.2-2.11-.11-4.21-.05-6.3.21-.58.07-.96,0-1.34-.46-3.89-4.66-8.92-7.82-14.12-10.75-3.67-2.07-7.46-3.88-11.38-5.43-1.12-.44-1.73-1.15-2.11-2.24-.87-2.53-.63-5.05-.11-7.59.38-1.82,1.04-3.53,1.79-5.22,5.25-11.72,9.67-23.73,12.97-36.15,1.93-7.24,3.46-14.57,4.39-22,.31-2.49.5-5,.62-7.51.04-.94.4-1.32,1.22-1.64,4.35-1.7,8.86-2.5,13.5-2.76,3.02-.17,6.05-.22,9.05-.63,1.58-.21,3.12-.58,4.61-1.16,1.01-.39,1.95-.91,2.8-1.59,2.17-1.75,2.63-4.35,1.19-6.73-.83-1.37-1.93-2.52-3.12-3.59-2.38-2.13-4.97-3.96-7.7-5.62-.59-.36-.94-.63-.47-1.41,3.56-5.97,8.29-10.57,15.04-12.72,5.08-1.63,10.11-1.47,14.95.99,2,1.02,3.63,2.48,4.96,4.29.44.59.5,1.14.22,1.85-1.05,2.69-2.93,4.42-5.75,5.06-3.02.7-5.97.29-8.84-.76Z"/>
  <path class="cls-4" d="M294.38,188.26c2.35-3.77,4-7.83,5.14-12.11,1.34-5.02,2.1-10.14,2.59-15.3.97-10.33,1.16-20.7.9-31.06-.26-10.71-1.65-21.26-4.9-31.51-2.42-7.64-6.04-14.68-10.65-21.23-.56-.79-1.08-1.61-1.62-2.43.44-.4.7,0,.96.15,5.08,2.85,10.6,4.34,16.29,5.3.75.13.88-.18.9-.8.03-1.08.09-2.15.19-3.22.06-.64-.18-.91-.78-1.09-.94-.28-1.78-.79-2.51-1.45-1.18-1.08-1.79-2.38-1.47-3.99.11-.53.01-.94-.19-1.44-.52-1.29-.23-2.61.17-3.99.82.15,1.54.47,2.07.97,1.14,1.09,2.5.64,3.78.7.48.02.76-.45,1.04-.83.92-1.23,1.91-2.41,3.04-3.46,1.21-1.13,2.53-2.09,4.04-2.77,3.12-1.41,6.08-.88,8.43,1.59.56.59.99.68,1.71.38,3.86-1.6,6.22-6.02,5.12-9.76-.72-2.43-2.39-3.91-4.85-4.44-2.72-.58-5.31,1.51-5.41,4.28-.06,1.58.84,2.96,2.28,3.48,1.47.53,2.87.02,3.86-1.41.17-.24.31-.5.52-.84.36,1.9-.42,3.41-2.07,4.23-1.43.71-2.86.68-4.32.08-3-1.22-4.49-4.59-3.43-7.79,1.2-3.65,5.06-5.71,8.87-4.77,6.57,1.63,8.94,9.17,4.29,14.64-1.22,1.44-2.78,2.41-4.59,2.97-.45.14-.99.2-.69.88.98,2.27.47,4.54.06,6.81-.65,3.6-1.89,7.02-3.29,10.39-.19.46-.53.88-.45,1.64,3.23.12,6.45-.34,9.67-.5.08.52-.18.86-.35,1.23-5.13,11.09-8.52,22.73-10.91,34.68-1.4,7-2.4,14.05-2.97,21.16-.56,6.91-.76,13.84-.07,20.75.21,2.14.53,4.28,1.22,6.33.3.88.64,1.74,1.25,2.45.76.88,1.47.96,2.42.27.67-.49,1.2-1.12,1.69-1.78,1.93-2.61,3.36-5.51,4.8-8.4.32-.64.52-1.34,1.11-2.06,3.73,13.31,10.31,24.88,20.08,34.94-1.95-.63-3.63-1.18-5.31-1.71-5.67-1.79-11.37-3.47-17.23-4.58-2.83-.53-5.67-.88-8.56-.76-3.09.14-5.79,1.15-7.98,3.44-2.27,2.38-4.68,4.61-7.19,6.73-5.51,4.67-11.41,8.72-18.22,11.29-4.32,1.63-8.77,2.53-13.4,2.24-6.62-.41-12.31-2.91-17.01-7.62-.9-.9-.89-.92-.25-2.09,5.12-9.32,13.09-14.6,23.44-16.46,4.32-.78,8.67-.87,13.03-.33,1.26.16,1.29.18.94,1.42-.83,2.93-1.98,5.72-3.84,8.17-1.53,2.02-3.43,3.53-5.95,4.11-1.46.33-2.92.33-4.34-.27.15-.49.57-.42.89-.51,1.35-.35,2.65-.8,3.78-1.65,1.49-1.11,2.33-2.57,2.27-4.47-.03-1.04-.11-1.12-1.13-1.26-6.35-.86-11.98.84-16.99,4.76-2.08,1.62-3.85,3.54-5.38,5.68-.78,1.08-.77,1.17.24,1.99,2.39,1.94,5.21,2.83,8.18,3.27,7.18,1.07,13.85-.63,20.19-3.92,6.8-3.53,12.36-8.58,17.27-14.39,2.22-2.63,4.26-5.39,6.16-8.26.3-.45.71-.86.77-1.58-.73.05-.99.59-1.33.97-2.04,2.31-4.16,4.54-6.37,6.68-2.88,2.79-5.97,5.33-9.25,7.63-.14-.14-.28-.28-.43-.42ZM313.24,171.39c-.68.13-.92.72-1.24,1.22-.18.2-.53.43-.2.68.19.14.39-.17.49-.39.53-.38.78-.92.93-1.53.03-.09.29-.12.08-.28-.02.1-.04.2-.07.3ZM315.06,75.53c0-.69,0-1.1,0-1.51,0-1.34-.1-2.67-.57-3.93-.39-1.03-1-1.22-1.91-.62-.93.62-1.58,1.48-1.92,2.53-.86,2.63-1.64,5.28-2.48,7.91-.21.65.05.84.63.88,1.64.1,3.28.18,4.91.3.71.05,1.03-.2,1.06-.93.06-1.64.35-3.26.29-4.63ZM318.51,70.92c-1.15,3.54-2.05,6.77-2.87,10,.71.35,1.34.16,1.93.23.79.1,1.12-.23,1.14-1.02.05-2.36.35-4.7.29-7.06-.02-.61-.02-1.23-.49-2.15ZM307.04,75.6l-.35-.06c-.48,1.33-.97,2.66-1.44,4-.18.52-.07.88.56.98.85.13,1.2,0,1.22-.65.04-1.42.01-2.84.01-4.26Z"/>
  <path class="cls-4" d="M195.95,206.23c-.21-.31-.06-.6.07-.86,4.02-8.21,9.59-15.05,17.79-19.4,7.15-3.79,14.61-4.02,22.23-1.56,2.69.87,5.25,2.04,7.72,3.44.49.28.98.54,1.47.81.37-.47-.01-.73-.19-.97-.8-1.06-1.64-2.1-2.48-3.14-.32-.39-.51-.7-.06-1.17,4.13-4.35,6.45-9.69,8.26-15.3,1.79-5.53,2.93-11.2,3.75-16.94,1.02-7.22,1.76-14.47,1.41-21.77-.47-9.67-2.67-18.87-7.9-27.16-3.83-6.07-8.89-10.84-15.13-14.37-.39-.22-.75-.55-1.25-.53-.1-.14-.14-.14-.11-.01,0,0,.08-.01.13-.02-.28.57.16.98.34,1.42.59,1.48,1.19,2.94,1.58,4.49.54,2.17.24,4.19-1.01,6.02-.72,1.06-.82,2.15-.48,3.32.3,1.02.15,2-.1,3.07-.65-.32-.88-.84-1.21-1.28-.78-1.06-2.71-1.09-3.49-.05-.33.45-.58.96-1.15,1.3-.45-.94-.51-1.92-.21-2.84.42-1.31.29-2.45-.48-3.58-1.18-1.75-1.5-3.67-1.03-5.73.51-2.21,1.46-4.26,2.38-6.32.17-.37.34-.75.52-1.12.23-.48.07-.78-.42-.93-.88-.28-1.74-.63-2.64-.83-.99-.23-1.78-.72-2.5-1.42-1.89-1.86-3.36-4-4.5-6.38-.56-1.16-.55-1.18.45-2.02,4.28-3.62,8.23-7.57,11.59-12.08,1.32-1.77,2.54-3.61,3.53-5.59.57-1.15.57-1.17-.37-1.92-1.98-1.56-4.05-2.97-6.42-3.89-1.31-.51-2.66-.77-4.06-.68-2.38.15-4.36,1.91-4.81,4.26-.32,1.68.22,3.02,1.54,4.09,1.52,1.23,3.33,1.77,5.19,2.2.58.14,1.17.24,2.12.44-2.97,1.25-5.65,1.99-8.52,1.38-1.76-.38-2.99-1.5-3.75-3.14-1.57-3.42-.86-7.91,1.71-10.64,2.09-2.21,4.74-2.7,7.63-2.37,3.26.37,6.25,1.58,9.15,3.02,2.48,1.23,4.85,2.67,7.12,4.26,1.13.8,1.13.81.24,1.97-2.72,3.54-5.27,7.2-7.38,11.15-1.26,2.36-2.34,4.78-2.87,7.43-.49,2.43.14,4.45,1.99,6.11,1.67,1.49,3.65,2.23,5.81,2.59,3.35.55,6.65.14,9.93-.49,3.78-.72,7.45-1.86,11.08-3.15,1.89-.68,2.66-.4,3.6,1.42,1.14,2.22,1.52,4.67,1.91,7.1.7,4.31.86,8.67,1.18,13.02.02.3.07.61.12,1.08,1.05-5.89,1.98-17.96-.43-24.32.39-.22.54.17.73.34,2.72,2.54,4.48,5.7,5.91,9.09.19.45.14.89.07,1.36-1.25,7.59-2.31,15.21-3.19,22.85-.8,6.93-1.42,13.87-1.72,20.85-.21,4.88-.24,9.74.13,14.61.23,3.02.61,6.02,1.49,8.93.36,1.18.81,2.32,1.39,3.41,1.82,3.4,4.83,4.17,8.54,2.83,1.31-.47,2.42-1.34,3.49-2.22,3.51-2.89,6.36-6.39,9.12-9.97.96-1.24,1.87-2.52,3-4.04.12,1.11.24,1.91.28,2.7.4,8.19-.26,16.3-2.12,24.29-.3,1.29-.33,1.34-1.62,1.18-2.86-.35-5.73-.47-8.6-.32-14.74.81-25.73,7.74-33.19,20.41-.03.04-.05.09-.07.14-.97,1.85-.65,1.65-2.4.61-2.66-1.57-5.41-2.93-8.35-3.89-9.46-3.1-18.4-1.83-26.9,3.18-4.59,2.7-8.55,6.18-12.26,9.97-.75.77-1.54,1.5-2.31,2.25l.02.03Z"/>
  <path class="cls-13" d="M555.6,168.7c.71-.1,1.43-.2,2.14-.29-.01.17-.02.33-.03.5-6.91,2.22-14.02,2.72-21.21,2.55,13.41,3.9,26.03,2.15,38.07-5.71-3.5,6.77-6.46,13.34-4.9,21.06-1.58-.14-3.1-.27-4.61-.41-4.7-.46-9.32.04-13.86,1.3-1.3.36-1.3.38-2.11-.7-4.36-5.83-9.61-10.65-16.1-14.05-5.12-2.68-10.54-4.23-16.32-4.53-1.14-.06-1.17-.08-1.13-1.24.16-4.59,1.08-9.05,2.35-13.45,2.32-8.01,5.7-15.59,9.57-22.96,5.81-11.06,12.53-21.54,19.96-31.58.09-.12.17-.25.27-.38.79-1.03.79-1.03,1.9-.32,8.36,5.36,17.5,8.23,27.44,8.39,3.28.05,6.56-.26,9.78-.99.3-.07.6-.14,1.03-.01.99,7.2-.23,14.11-3.04,20.79-.15-.04-.28-.04-.33-.1-3.22-3.9-7.53-6.12-12.18-7.74-5.49-1.91-11.15-2.73-16.96-2.24-2.94.25-5.79.87-8.27,2.59-5.16,3.56-5.37,11.05-.44,14.94,2.3,1.81,4.96,2.87,7.74,3.66,3.86,1.1,7.82,1.66,11.82,1.89,1.95.11,3.89.19,5.84.22.72.01,1.01.28,1.03.99.16,5.28-2.56,11.84-8.8,14.28-.85.33-1.54.34-2.27-.27-1.17-.98-2.46-1.8-3.55-3.16,1.24.12,2.3.27,3.35-.03,1.56-.44,2.56-1.57,2.66-3.19.08-1.29-.36-2.28-1.57-2.91-2.02-1.06-4.2-1.64-6.42-2.07-4.84-.93-9.68-1.1-14.49.16-2.88.76-5.49,2.04-7.42,4.4-3.43,4.2-3.35,9.4.19,13.49,3.19,3.68,7.35,5.66,12.01,6.69,2.77.61,5.58.79,8.41.52.16.09.31.06.43-.08Z"/>
  <path class="cls-11" d="M359.96,39.6c-.98.24-1.77.32-2.31,1.09-.37.52-1.05.59-1.65.74-1.38.33-2.61.89-3.48,2.09-.26.36-.68.61-1.05.89-.28.22-.6.4-.88.62-2.11,1.74-2.28,2.55-1.01,4.97.33.63.69,1.27,1.13,1.82.48.61.86.55,1.34-.06.27-.34.25-.91.82-1.03.42.26.23.63.16.96-.2.95-.42,1.9-.63,2.85-.1.46-.3.87-.59,1.23-.99,1.23-1.65,1.24-2.75.09-.93-.97-1.58-2.14-2.27-3.28-.68-1.12-1.48-2.05-2.74-2.59-1.04-.44-1.3-.87-.98-1.79.47-1.38.02-2.62-.3-3.9-.24-.95-.68-1.82-1.1-2.7-.2-.41-.4-.84-.51-1.28-.37-1.48-.66-2.97-1.44-4.32-.45-.78-.26-1.56.26-2.28.73-1.03,1.64-1.84,2.84-2.25,1.14-.39,1.89.04,1.9,1.2.01,2.34.68,4.55,1.23,6.79.27,1.1.48,2.2.66,3.31.14.85.42.96,1.16.59.41-.2.84-.41,1.19-.71,1.4-1.16,3.05-1.87,4.66-2.64.84-.4,1.67-.78,2.58-.97.92-.19,1.71-.67,2.55-1.03,1.17-.51,1.43-1.36,1.32-2.46-.17-1.73-.34-3.47-.55-5.2-.08-.64-.05-1.34-.85-1.67-.34-.14-.26-.52-.12-.81.8-1.64,1.85-3.08,3.47-4.01.72-.42,1.08-.28,1.43.5.29.63.24,1.3.29,1.96.1,1.31-.19,2.68.59,3.89.18.27.03.6.03.91.03,2.76-.33,5.5-.15,8.29.17,2.59-.33,5.21-.23,7.83.06,1.49.05,2.98.07,4.46,0,.62-.05,1.24-.39,1.78-.45.7-1,.69-1.38-.02-.17-.31-.33-.64-.42-.98-.76-3.03-1.33-6.09-1.55-9.22-.08-1.17-.23-2.34-.36-3.66Z"/>
  <path class="cls-11" d="M369.12,43.2c-.58-.28-1.3.34-1.46-.42-.22-1.06-.85-2.17.08-3.21.1-.11.22-.24.35-.29,1.98-.75,2.28-2.6,2.77-4.29.57-1.97.8-4.02,1.46-5.97.39-1.17.78-2.33,1.63-3.28.3-.34.48-.7,0-1.04-.57-.4-.37-.74.04-1.09.08-.07.14-.18.23-.2,2.3-.52,3.47-2.76,5.57-3.62.76-.31,1.47-.72,2.33-.6.77.11,1,.46.7,1.15-.12.28-.32.52-.49.78-.77,1.24-.69,1.42.78,1.83.69.19,1.37.44,2.07.58.86.17,1.37.68,1.55,1.5.28,1.28.84,2.54.4,3.91-.13.39-.07.83.08,1.21.42,1.03.54,2.06.27,3.15-.11.46-.03.81.55,1.07.75.34.79.8.1,1.23-.75.46-.61.95-.59,1.66.02,1.37-.11,2.77-.4,4.11-.32,1.5-.23,3.04-.64,4.52-.15.55-.35,1.07-.82,1.44-.3.23-.64.33-1.01.22-.44-.13-.46-.54-.45-.88.05-1.38-.21-2.74-.13-4.13.08-1.36-.49-2.71-.1-4.09.06-.21-.13-.49-.18-.73-.12-.52-.38-.58-.89-.45-3.24.8-6.31,2.03-9.29,3.51-.56.28-.86.58-1.02,1.2-.56,2.23-1.25,4.43-1.2,6.77,0,.5-.16,1.01-.31,1.5-.25.82-1.07,1.45-1.68,1.27-.73-.23-.77-.9-.78-1.51-.04-1.59.05-3.17.24-4.75.08-.66.15-1.32.24-2.05ZM383.33,33.28c.29-.76-.22-1.52-.22-2.33-.01-1.61-.95-2.64-2.16-3.49-1.4-.98-2.6-.64-3.4.9-1.29,2.49-2.1,5.19-3.29,7.73-.37.78-.13,1.05.73.86,2.19-.49,4.35-1.1,6.57-1.46.4-.06.79-.21,1.19-.32.45-.13.7-.39.65-.89-.03-.3-.04-.61-.06-1Z"/>
  <path class="cls-11" d="M430.04,46.64c-2.06.21-4.09-.17-6.11-.44-1.68-.23-3.39.07-5.04-.42-.34-.1-.59.11-.72.42-.51,1.29-1.62,2.45-.93,4.02.11.25.09.53-.14.7-.74.54-1.48,1.13-2.42,1.27-1.01.16-1.64-.44-1.58-1.54.04-.87.27-1.72.76-2.47.23-.34.47-.67.67-1.03.5-.88.45-1.17-.25-1.87-.18-.18-.39-.33-.57-.52-.48-.53-.42-.76.23-.94.05-.01.1-.02.15-.02,1.35-.04,2.03-.58,2.32-2.06.24-1.25,1.08-2.41,1.77-3.55,1.16-1.92,1.92-4.06,3.28-5.86.09-.12.17-.26.26-.38q1.46-2.2.24-4.46c-.12-.23-.25-.45-.37-.68-.45-.91-.4-1.14.52-1.51,1.14-.46,2.34-.73,3.58-.82.52-.04,1,.06,1.46.34,1.27.77,2.49,1.6,3.68,2.49,3.3,2.46,5.53,5.71,7.06,9.48,1.13,2.79.62,5.32-1.2,7.63-1.15,1.45-2.62,2.25-4.51,2.21-.72-.02-1.43,0-2.15,0ZM425.96,28.97c.4.64.83,1.27,1.19,1.94.95,1.72.96,2.11-.43,3.48-2.04,2.01-3.72,4.29-5.34,6.63-.35.5-.69,1.02-.98,1.56-.66,1.23-.5,1.59.85,1.62,2.71.06,5.41.32,8.13-.01,2.35-.29,3.69-1.6,3.91-3.98.17-1.86-.44-3.53-1.3-5.11-.73-1.36-1.73-2.53-2.66-3.76-.85-1.13-2.01-1.83-3.36-2.36Z"/>
  <path class="cls-11" d="M414.51,32.19c-.06,1.38-.46,2.85-1.32,4.18-.75,1.16-1.83,1.84-3.15,2.3-2.73.94-5.55,1.39-8.39,1.77-1.52.2-2.98.77-4.53.82-.35.01-.63.19-.66.52-.14,1.38-.93,2.79.1,4.15.13.17.18.36.13.58-.14.67-1.95,2.18-2.63,2.19-.64.02-1.2-.45-1.34-1.24-.16-.91-.18-1.84.14-2.73.14-.39.3-.77.38-1.17.15-.7.11-1.33-.74-1.6-.29-.09-.56-.26-.81-.44-.37-.26-.41-.57,0-.84.13-.08.27-.16.41-.2,1.27-.32,1.47-1.11,1.54-2.38.11-1.81.81-3.58,1.14-5.39.47-2.52,1.23-4.95,2.11-7.34.19-.53-.06-.89-.38-1.24-.61-.69-1.21-1.39-1.85-2.05-.46-.48-.44-.89.07-1.28,1.15-.87,2.4-1.55,3.81-1.94.98-.27,1.83.26,2.66.52,4.84,1.48,8.86,4.19,11.8,8.37.9,1.28,1.51,2.68,1.5,4.47ZM399.69,22.87c-.04.09-.08.19-.12.28.71.73,1.44,1.44,2.13,2.19.67.72.8,1.51.26,2.39-.27.44-.44.93-.73,1.35-1.59,2.35-2.23,5.11-3.3,7.68-.16.37-.25.78-.33,1.18-.22,1.19,0,1.48,1.15,1.21,2.79-.64,5.61-1.18,8.27-2.31,1.46-.62,2.29-1.71,2.45-3.26.13-1.2-.18-2.38-.71-3.41-1.4-2.74-3.83-4.51-6.29-6.18-.81-.55-1.86-.76-2.8-1.13Z"/>
  <path class="cls-5" d="M438.53,61.82c-1.15-.04-2.41-.32-3.36-1.43-.74-.86-.77-1.01.02-1.74.08-.07.15-.14.24-.19,1.71-.99,3.12-2.43,4.98-3.2,1.36-.56,1.26-.61.99-2.05-.35-1.87-.26-3.78.02-5.66.39-2.57.76-5.14,1.89-7.55.32-.68.33-1.58.7-2.31.55-1.09,1.19-1.34,2.25-.79.83.43,1.69.73,2.56,1.04,1.64.59,1.98,1.61,1.13,3.09-.66,1.15-1.7,2.02-2.27,3.27-.94,2.06-1.65,4.19-2.31,6.35-.03.1-.05.2-.07.3-.33,1.78.04,2.11,1.79,1.58,3.33-1.01,6.6-2.22,10.02-2.88,2.28-.44,4.58-.48,6.88-.48.54,0,.99.22,1.34.64.38.46.44.91.02,1.37-.7.76-1.47,1.47-2.44,1.83-2.78,1.02-5.64,1.76-8.56,2.24-1.11.18-2.24.26-3.36.38-2.73.28-8.07,2.4-10.13,4.07-.47.38-1.05.7-1.06,1.42-.01.72-.44.84-1.25.71Z"/>
  <path class="cls-10" d="M520.75,115.93c-.22,1.03-.68,1.96-1.4,3.09.21-1.25.39-2.2.88-3.07.17,0,.35-.02.52-.03Z"/>
  <path class="cls-6" d="M445.37,77.06c-.14.15-.28.3-.41.44-.44-.15-.8-.39-1.01-.92.56.02,1.03.13,1.42.48Z"/>
  <path class="cls-1" d="M697.51,83.6s.06-.08.09-.12c.08.06.05.1-.11.1,0,0,.02.02.02.02Z"/>
  <path class="cls-8" d="M727.07,109.47c-.05.06-.09.13-.14.19-.07-.18-.03-.24.16-.17,0,0-.02-.03-.02-.03Z"/>
  <path class="cls-8" d="M70.27,123.97c.09-.09.18-.1.21,0,.02.05-.03.12-.05.19-.05-.07-.1-.15-.14-.22,0,0-.02.03-.02.03Z"/>
  <path class="cls-9" d="M419.26,153.36c-1.88,4.92-4.18,9.62-7.74,13.86-1.98-3.77-4.23-7.11-7.23-9.89-.18-.17-.36-.37-.73-.33-1.25,4.24-2.51,8.49-3.86,13.06-3.37-4.13-6.55-8.05-10.46-11.63-1.99,4.21-2.92,8.51-3.77,13.08-4.64-3.63-8.13-8.03-11.64-12.43-.49.14-.49.53-.56.85-.68,2.8-1.12,5.63-1.25,8.51-.02.33.14.79-.29.95-.37.14-.67-.17-.95-.38-1.37-1.02-2.52-2.26-3.66-3.51-1.58-1.74-3.15-3.49-4.71-5.23-.61.34-.69.88-.88,1.34-.83,2-1.36,4.08-1.78,6.19-.2.99-.28,1.03-1.18.5-2.56-1.51-4.63-3.57-6.36-5.96-2.59-3.58-4.37-7.52-5.25-11.86-.15-.76-.27-1.51-.18-2.31.53.07.57.53.74.85,2.01,3.85,4.47,7.36,7.69,10.31.63.58,1.25,1.19,2.17,1.59.72-2.7,1.49-5.28,2.85-7.81,2.6,2.95,4.76,6.18,8.32,8.2.96-3.6,1.93-7.02,3.48-10.47,2.98,4.12,5.4,8.44,9.75,11.41,1.21-5.93,2.91-11.42,5.4-16.9,3.22,3.78,6.29,7.39,9.54,11.19,1.83-4.67,3.55-9.08,5.37-13.71,1.68,1.8,2.95,3.64,4.28,5.44,1.33,1.8,2.58,3.66,3.92,5.56.64-.69.88-1.47,1.16-2.21,1.66-4.43,2.67-9.04,3.71-13.64.54-2.38.52-2.4,2.38-.86,3.24,2.69,5.83,5.9,7.76,9.65.18.35.23.78.69,1.08.67-.57,1.04-1.36,1.4-2.13,1.59-3.31,2.49-6.84,3.15-10.42.94-5.11,1.4-10.26.97-15.46-.14-1.74-.4-3.46-.78-5.16-.06-.29-.21-.57-.05-.9.48.37.65.92.9,1.41,2.42,4.77,3.84,9.81,4.27,15.14.79,9.67-1.14,18.77-5.66,27.33-.94,1.77-2.03,3.45-3.54,4.81-.93.84-1.14.8-1.57-.38-1.05-2.87-2.44-5.53-4.58-7.76-.28-.3-.58-.58-.88-.86-.07-.06-.19-.06-.36-.12Z"/>
  <path class="cls-2" d="M399.15,126.97c.08-.23.1-.38.17-.51,3.19-5.39,6.44-10.73,10.41-15.6.71-.88,1.5-1.69,2.36-2.42.91-.77,1.94-1.09,3.14-.9,2.73.42,5.01,1.71,7.02,3.57.5.46.69.99.53,1.66-.84,3.39-2.4,6.42-4.52,9.18-.27.35-.58.54-1.04.55-5.86.07-11.25,2.05-16.62,4.12-.42.16-.8.47-1.46.36Z"/>
  <path class="cls-9" d="M374.07,135.09c-.1.32-.38.34-.59.43-1.81.71-3.64,1.38-5.45,2.09-2.78,1.09-5.66,1.46-8.6,1.12-4.24-.49-7.17-2.78-8.76-6.75-.49-1.23-.4-1.41.74-2.08,1.42-.82,2.87-1.58,4.45-2.06,1.28-.39,2.46-.32,3.67.39,4.51,2.64,9.16,5.01,14.17,6.59.13.04.24.17.35.26Z"/>
  <path class="cls-12" d="M380.06,139.86c.15-3.25.98-6.29,2.42-9.15.55-1.09.59-1.09,1.56-.43,2.34,1.57,4.67,3.14,6.86,4.92.39.31.8.6,1.12,1.23-1.99-.08-3.77-.46-5.51-.94-1.3-.36-2.21-.19-3.09.84-1.05,1.23-2.23,2.36-3.36,3.53Z"/>
  <path class="cls-12" d="M571.48,77.91c0,2.61.61,2.12-2.13,2.57-2.3.38-2.31.31-2.63-2.02-.05-.41-.08-.81-.13-1.22-.12-1.11-.11-1.14.91-1.28,1.06-.15,2.13-.27,3.19-.41.52-.07.77.17.78.68,0,.56,0,1.12,0,1.69Z"/>
  <path class="cls-12" d="M571.32,72.32c0,.26,0,.51,0,.77-.01,1.11-.01,1.12-1.05,1.27-1.06.15-2.13.25-3.19.45-.69.13-.99-.14-1-.77,0-.97-.69-2.03-.2-2.84.48-.81,1.69-.44,2.57-.64.55-.12,1.12-.12,1.67-.24,1.25-.29,1.2.12,1.17,1.08,0,.31,0,.61,0,.92h.03Z"/>
  <path class="cls-12" d="M565.74,80.18c.09.52-.07.86-.68.93-.81.09-1.62.21-2.43.33-.52.08-.89-.04-1.03-.62-.25-1.04-.54-2.08-.8-3.12-.12-.48.03-.81.58-.85.1,0,.2-.02.31-.03,3.85-.68,4.01-.56,4.06,3.36Z"/>
  <path class="cls-12" d="M560.61,75.73c-.1.02-.37-.12-.47-.56-.24-.99-.89-2.08-.65-2.93.28-1.02,1.67-.6,2.56-.75,2.69-.44,2.38-.67,2.75,2.03.04.25.03.51.09.76.14.57-.05.88-.64.95-1.11.14-2.22.3-3.64.49Z"/>
  <path class="cls-2" d="M189.41,133.05c.05-4.71.89-8.24,3.21-11.31.63-.83,1.38-1.51,2.26-2.06,2.93-1.84,6.32-1.04,8.14,1.9.65,1.06,1.06,2.21,1.31,3.42.64,3.07.59,6.11-.38,9.1-1.62,5-6.35,7.35-11.26,6.75-1.23-.15-2.03-.74-2.33-2.06-.51-2.2-.99-4.4-.95-5.74Z"/>
  <path class="cls-7" d="M315.06,75.53c.06,1.36-.23,2.99-.29,4.63-.03.73-.34.99-1.06.93-1.64-.12-3.27-.21-4.91-.3-.58-.03-.83-.23-.63-.88.84-2.63,1.63-5.29,2.48-7.91.34-1.04,1-1.91,1.92-2.53.91-.6,1.52-.41,1.91.62.48,1.26.57,2.59.57,3.93,0,.41,0,.82,0,1.51Z"/>
  <path class="cls-12" d="M318.51,70.92c.46.92.47,1.54.49,2.15.06,2.36-.24,4.71-.29,7.06-.02.79-.35,1.12-1.14,1.02-.6-.08-1.23.12-1.93-.23.82-3.23,1.73-6.46,2.87-10Z"/>
  <path class="cls-3" d="M307.04,75.6c0,1.42.03,2.84-.01,4.26-.02.65-.37.78-1.22.65-.64-.1-.75-.46-.56-.98.47-1.34.96-2.66,1.44-4l.35.06Z"/>
  <path class="cls-8" d="M231.65,87.27s-.13.02-.13.02c-.03-.13,0-.13.11.01,0,0,.02-.03.02-.03Z"/>
  <path class="cls-7" d="M383.33,33.28c.02.39.03.7.06,1,.06.5-.2.76-.65.89-.39.11-.78.25-1.19.32-2.22.35-4.38.96-6.57,1.46-.86.19-1.09-.08-.73-.86,1.19-2.54,2-5.24,3.29-7.73.8-1.54,1.99-1.88,3.4-.9,1.21.85,2.15,1.88,2.16,3.49,0,.81.51,1.57.22,2.33Z"/>
  <path class="cls-9" d="M425.96,28.97c1.35.53,2.51,1.22,3.36,2.36.92,1.23,1.92,2.4,2.66,3.76.86,1.59,1.47,3.25,1.3,5.11-.21,2.38-1.55,3.69-3.91,3.98-2.71.34-5.42.07-8.13.01-1.35-.03-1.52-.39-.85-1.62.29-.54.63-1.05.98-1.56,1.62-2.34,3.3-4.62,5.34-6.63,1.39-1.37,1.38-1.76.43-3.48-.37-.66-.79-1.29-1.19-1.94Z"/>
  <path class="cls-9" d="M399.69,22.87c.94.37,1.99.57,2.8,1.13,2.46,1.67,4.89,3.44,6.29,6.18.53,1.03.84,2.22.71,3.41-.16,1.55-.99,2.64-2.45,3.26-2.66,1.13-5.48,1.67-8.27,2.31-1.15.26-1.37-.02-1.15-1.21.07-.4.17-.81.33-1.18,1.07-2.57,1.71-5.33,3.3-7.68.29-.42.46-.92.73-1.35.54-.87.4-1.67-.26-2.39-.69-.75-1.42-1.46-2.13-2.19.04-.09.08-.19.12-.28Z"/>
</svg>